<svg xmlns="http://www.w3.org/2000/svg" viewBox="0 0 380 113.74"><title>logo-socialitv</title><rect x="116.64" width="1.21" height="113.74" style="fill:#17140f"/><path d="M105.52,101.27H33.92V28.5h71.71ZM56.83,78H82.72V51.5H56.83Z" transform="translate(0 -8.13)" style="fill:#0067b0"/><rect y="43.48" width="25.66" height="26.2" style="fill:#0067b0"/><path d="M131.46,38.81a6.6,6.6,0,0,0,.45,2.48,4.62,4.62,0,0,0,1.34,1.7,5,5,0,0,0,2.08.93,12.33,12.33,0,0,0,2.53.31,10.9,10.9,0,0,0,2.39-.31,3.47,3.47,0,0,0,1.64-.93,2.42,2.42,0,0,0,.89-1.24,4.56,4.56,0,0,0,.3-1.39,3.61,3.61,0,0,0-.6-2.16,3.4,3.4,0,0,0-1.34-.93,22.78,22.78,0,0,0-3.13-.93l-4.32-1.24A20.63,20.63,0,0,1,131,33.86a8.26,8.26,0,0,1-1.64-1.54,5.46,5.46,0,0,1-.89-1.86,9.39,9.39,0,0,1-.3-2.17,8.61,8.61,0,0,1,.75-3.4A6.07,6.07,0,0,1,131,22.57a7.21,7.21,0,0,1,3-1.24,12,12,0,0,1,3.28-.47,15.29,15.29,0,0,1,3.72.47,11,11,0,0,1,3,1.55,7.81,7.81,0,0,1,2.83,6.19h-4.32a4.43,4.43,0,0,0-1.64-3.56,6.17,6.17,0,0,0-3.72-1.09,5.71,5.71,0,0,0-1.64.16,5.9,5.9,0,0,0-1.49.62,3.57,3.57,0,0,0-1,1.08A2.89,2.89,0,0,0,133.4,30a5.76,5.76,0,0,0,2.08,1.24l1,.31,2.09.62,2.38.62,1.64.46a9,9,0,0,1,2.09,1.09,7.21,7.21,0,0,1,1.48,1.54,5.31,5.31,0,0,1,.9,1.86,9.39,9.39,0,0,1,.3,2.17,7.73,7.73,0,0,1-.6,3.71,8.85,8.85,0,0,1-2.23,2.48,11.56,11.56,0,0,1-3.13,1.39,14.12,14.12,0,0,1-3.58.46,12.2,12.2,0,0,1-4-.61,9.43,9.43,0,0,1-3.27-1.71,7.2,7.2,0,0,1-2.24-2.94,10,10,0,0,1-.89-4.17Z" transform="translate(0 -8.13)" style="fill:#17140f"/><path d="M158.87,47.94a8.28,8.28,0,0,1-3.88-.77A7.82,7.82,0,0,1,152.16,45a12.54,12.54,0,0,1-1.78-3.09,14.11,14.11,0,0,1,0-7.89,12.6,12.6,0,0,1,1.78-3.1A10.08,10.08,0,0,1,155,28.76a11.11,11.11,0,0,1,7.75,0,7.79,7.79,0,0,1,2.83,2.16,13,13,0,0,1,1.79,3.1,12,12,0,0,1,0,7.89A12.9,12.9,0,0,1,165.57,45a10.11,10.11,0,0,1-2.83,2.17A12.36,12.36,0,0,1,158.87,47.94Zm0-3.4a3.73,3.73,0,0,0,2.23-.62,5.23,5.23,0,0,0,1.64-1.55,5.65,5.65,0,0,0,.89-2.16,8.7,8.7,0,0,0,0-4.8,7,7,0,0,0-.89-2.17,5.41,5.41,0,0,0-1.64-1.54,4.85,4.85,0,0,0-4.62,0,5.3,5.3,0,0,0-1.64,1.54,5.7,5.7,0,0,0-.89,2.17,8.7,8.7,0,0,0,0,4.8,6.83,6.83,0,0,0,.89,2.16,5.43,5.43,0,0,0,1.64,1.55,3.31,3.31,0,0,0,2.39.62Z" transform="translate(0 -8.13)" style="fill:#17140f"/><path d="M183.29,35A4,4,0,0,0,182,32.32a4.46,4.46,0,0,0-2.83-.93,6,6,0,0,0-1.64.31,3.46,3.46,0,0,0-1.63.92,5,5,0,0,0-1.2,2.17,9.08,9.08,0,0,0-.44,3.41,13.26,13.26,0,0,0,.29,2.32,6.63,6.63,0,0,0,.9,2.16,4.3,4.3,0,0,0,1.49,1.4,3.78,3.78,0,0,0,2.23.61A3.82,3.82,0,0,0,182,43.61a4.81,4.81,0,0,0,1.34-3.09h4a9.18,9.18,0,0,1-2.53,5.57,7.28,7.28,0,0,1-5.51,1.85,7.66,7.66,0,0,1-3.72-.77A7.18,7.18,0,0,1,172.87,45a7.55,7.55,0,0,1-1.64-3.09,11,11,0,0,1-.6-3.87,11,11,0,0,1,.6-3.87,8.26,8.26,0,0,1,1.64-3.25,8.13,8.13,0,0,1,2.83-2.16,8.27,8.27,0,0,1,3.87-.78,9.31,9.31,0,0,1,3,.47,7.93,7.93,0,0,1,2.53,1.23,6.34,6.34,0,0,1,1.79,2.17,11.38,11.38,0,0,1,.89,2.94Z" transform="translate(0 -8.13)" style="fill:#17140f"/><path d="M190.59,21.64h4v4h-4Zm0,7.12h4V47.48h-4Z" transform="translate(0 -8.13)" style="fill:#17140f"/><path d="M214,43.15a2.87,2.87,0,0,0,.14,1.08c.15.31.45.31.75.31h1v2.94l-.59.15-.75.16h-1.34a5.22,5.22,0,0,1-2.08-.46,3,3,0,0,1-1.05-1.71,6.58,6.58,0,0,1-2.83,1.71,25,25,0,0,1-3.27.61,12.23,12.23,0,0,1-2.39-.31,11.81,11.81,0,0,1-2.08-.92A4.74,4.74,0,0,1,198.19,45a4.54,4.54,0,0,1-.45-2.47,5.85,5.85,0,0,1,.6-2.79A4.44,4.44,0,0,1,200,38a7.12,7.12,0,0,1,2.24-.93c.89-.15,1.64-.31,2.53-.46a8.27,8.27,0,0,1,2.09-.31,5.25,5.25,0,0,0,1.63-.31,3,3,0,0,0,1.2-.62A2.26,2.26,0,0,0,210.1,34a3,3,0,0,0-.3-1.24,3.63,3.63,0,0,0-.89-.77,3.28,3.28,0,0,0-1.19-.31h-1.19a4.62,4.62,0,0,0-2.83.77,2.67,2.67,0,0,0-1.19,2.17h-4a5.17,5.17,0,0,1,.9-2.94,5.15,5.15,0,0,1,1.79-1.86,7.25,7.25,0,0,1,2.53-.93,18.06,18.06,0,0,1,3-.31,16.44,16.44,0,0,1,2.68.31,7.83,7.83,0,0,1,2.38.93,5.81,5.81,0,0,1,1.64,1.7A5,5,0,0,1,214,34ZM210,38a6.18,6.18,0,0,1-2.23.77c-.89.16-1.79.16-2.68.31a3.44,3.44,0,0,0-1.19.31,2.45,2.45,0,0,0-1,.62,4.31,4.31,0,0,0-.74.93,4.69,4.69,0,0,0-.3,1.39,1.43,1.43,0,0,0,.45,1.09,3.82,3.82,0,0,0,.89.77,3.33,3.33,0,0,0,1.19.31h1.2a4.12,4.12,0,0,0,1.34-.15,6.47,6.47,0,0,0,1.49-.62,4.12,4.12,0,0,0,1.19-1.09A3.26,3.26,0,0,0,210,41V38Z" transform="translate(0 -8.13)" style="fill:#17140f"/><path d="M218.44,21.64h4V47.48h-4Z" transform="translate(0 -8.13)" style="fill:#17140f"/><path d="M236.47,21.64h4v4h-4Zm0,7.12h4V47.48h-4Z" transform="translate(0 -8.13)" style="fill:#17140f"/><path d="M242.87,21.64H263v4h-7.75V47.48h-4.47v-22h-7.89Z" transform="translate(0 -8.13)" style="fill:#17140f"/><path d="M263.13,21.64h4.47l6.25,20.42h0l6.41-20.42h4.46l-8.63,25.69h-4.77Z" transform="translate(0 -8.13)" style="fill:#17140f"/><path d="M131.07,57.79l-.55,2.29h0a4.83,4.83,0,0,1,1.54-1.83,3.2,3.2,0,0,1,2.21-.69h.66l-.44,1.95h-1a1,1,0,0,0-.56.11,2.68,2.68,0,0,0-1.21.69,9.65,9.65,0,0,0-1,1.14,4.37,4.37,0,0,0-.55,1.26c-.11.46-.22.92-.33,1.26l-1,4.81h-1.65l2.2-10.87Z" transform="translate(0 -8.13)" style="fill:#17140f"/><path d="M135.59,64.66a4.18,4.18,0,0,0,.22,1.14,1.54,1.54,0,0,0,.66.8,2.12,2.12,0,0,0,.88.46,3.23,3.23,0,0,0,1,.23,2.84,2.84,0,0,0,1.87-.57,2.78,2.78,0,0,0,1.11-1.61h1.76a5,5,0,0,1-.66,1.61,5.41,5.41,0,0,1-1.1,1.14,3.5,3.5,0,0,1-1.44.69,8.51,8.51,0,0,1-1.65.23,7.32,7.32,0,0,1-2.2-.35,3,3,0,0,1-1.32-1,3.84,3.84,0,0,1-.66-1.37,7,7,0,0,1-.22-1.6,8.58,8.58,0,0,1,.44-2.86,5.91,5.91,0,0,1,3-3.55,4.36,4.36,0,0,1,2.09-.46,4.48,4.48,0,0,1,3.42,1.26,5.15,5.15,0,0,1,1,3.55v.8l-.11.57H135.7A3,3,0,0,0,135.59,64.66Zm6.28-3.55a4.15,4.15,0,0,0-.44-1,1.54,1.54,0,0,0-.77-.69,2.14,2.14,0,0,0-1.22-.23,5.54,5.54,0,0,0-1.32.23,2,2,0,0,0-1,.69,2.47,2.47,0,0,0-.77,1,4.87,4.87,0,0,0-.44,1.14H142a3.65,3.65,0,0,0-.11-1.14Z" transform="translate(0 -8.13)" style="fill:#17140f"/><path d="M151.12,59.62a2.48,2.48,0,0,0-1.54-.46h-.77a1.67,1.67,0,0,0-.67.23,2,2,0,0,0-.55.46,1.69,1.69,0,0,0-.22.69,1.64,1.64,0,0,0,.22.68,2.12,2.12,0,0,0,.67.46c.33.12.55.34.88.46l1,.46c.33.11.66.34,1,.45a2.46,2.46,0,0,1,.88.58,4.69,4.69,0,0,1,.66.8,1.92,1.92,0,0,1,.22,1.14,2.94,2.94,0,0,1-.44,1.6,2.15,2.15,0,0,1-1,1,6.9,6.9,0,0,1-1.32.58,6.49,6.49,0,0,1-1.54.22,8.49,8.49,0,0,1-1.66-.22,6.9,6.9,0,0,1-1.32-.58,4.34,4.34,0,0,1-.88-1.14,3.11,3.11,0,0,1-.22-1.72h1.54a1.74,1.74,0,0,0,.22,1,3,3,0,0,0,.55.69,7.44,7.44,0,0,0,.88.34,2.86,2.86,0,0,0,1,.12h.88a2.06,2.06,0,0,0,.77-.23,2.42,2.42,0,0,0,.55-.46,1.71,1.71,0,0,0,.22-.8,1.69,1.69,0,0,0-.22-.69,2.16,2.16,0,0,0-.66-.45c-.33-.12-.55-.35-.88-.46l-1-.46c-.34-.11-.67-.34-1-.46a2.31,2.31,0,0,1-.88-.57,5.12,5.12,0,0,1-.66-.8,3.46,3.46,0,0,1-.22-1,3.1,3.1,0,0,1,.33-1.37,6.8,6.8,0,0,1,.88-1,4.11,4.11,0,0,1,1.21-.58,6.66,6.66,0,0,1,1.55-.22,7.43,7.43,0,0,1,1.54.22,4.11,4.11,0,0,1,1.21.58,3.82,3.82,0,0,1,.88,1,3.75,3.75,0,0,1,.33,1.6h-1.76C151.78,60.42,151.56,59.85,151.12,59.62Z" transform="translate(0 -8.13)" style="fill:#17140f"/><path d="M158.94,53.67l-1.21,5.72h0A3.89,3.89,0,0,1,159.38,58a4.36,4.36,0,0,1,2.09-.46,2.76,2.76,0,0,1,2.21.69,2.59,2.59,0,0,1,.66,2.17,2.64,2.64,0,0,1-.11.92,3.45,3.45,0,0,1-.22,1.14l-1.22,6.18H161l1.43-6.29V62l.11-.45v-.8a1.44,1.44,0,0,0-.55-1.15,2.82,2.82,0,0,0-1.32-.34,3.26,3.26,0,0,0-1.43.34,4.78,4.78,0,0,0-1.21.92,3.48,3.48,0,0,0-.77,1,5.56,5.56,0,0,0-.44,1.26l-1.22,6H154l3-15Z" transform="translate(0 -8.13)" style="fill:#17140f"/><path d="M167.09,59.51a5,5,0,0,1,1-1.15,3.62,3.62,0,0,1,1.32-.68,7.88,7.88,0,0,1,1.54-.23,7.31,7.31,0,0,1,1.55.11,4,4,0,0,1,1.21.46,3.06,3.06,0,0,1,.88.8,3.17,3.17,0,0,1,.33,1.37,3.26,3.26,0,0,1-.11,1c-.11.35-.11.69-.22,1l-.66,3a2.18,2.18,0,0,1-.22.8,2,2,0,0,0-.11.8,1.06,1.06,0,0,0,.11.57.38.38,0,0,0,.33.12h.22l.22-.12-.22,1.26-.55.12h-.55a1.4,1.4,0,0,1-1.1-.46,2,2,0,0,1-.33-1.15h0a3.3,3.3,0,0,1-1.33,1.15,4.66,4.66,0,0,1-2.09.46,3.79,3.79,0,0,1-1.21-.12,2.21,2.21,0,0,1-1-.57,1.76,1.76,0,0,1-.66-.92,3,3,0,0,1-.22-1.37,3.21,3.21,0,0,1,.44-1.83,3.46,3.46,0,0,1,1.21-1,4.45,4.45,0,0,1,1.65-.46l1.76-.23,1.22-.11a1.59,1.59,0,0,0,.77-.23.86.86,0,0,0,.44-.46,2.3,2.3,0,0,0,.11-.91,1.69,1.69,0,0,0-.22-.69,1.13,1.13,0,0,0-.55-.46,1.58,1.58,0,0,0-.66-.23h-.67a2.8,2.8,0,0,0-1,.12c-.33.11-.55.23-.88.34a3.35,3.35,0,0,0-.66.57,1.35,1.35,0,0,0-.33.92H166.1C166.54,60.54,166.76,60,167.09,59.51Zm.44,7.44a2.94,2.94,0,0,0,1.32.34,3.32,3.32,0,0,0,3-1.37,2.65,2.65,0,0,0,.55-1.26c.11-.46.22-1,.33-1.61h0a1.43,1.43,0,0,1-.88.35c-.44.11-.77.11-1.22.23l-1.21.11a1.87,1.87,0,0,0-1.1.34,2.46,2.46,0,0,0-.88.58,1.87,1.87,0,0,0-.33,1,1.41,1.41,0,0,0,.44,1.26Z" transform="translate(0 -8.13)" style="fill:#17140f"/><path d="M179.65,57.79l-.33,1.6h0A4.38,4.38,0,0,1,180.86,58a4.94,4.94,0,0,1,1.87-.34,4.38,4.38,0,0,1,1.76.34,8.77,8.77,0,0,1,1.32.92,4.25,4.25,0,0,1,.78,1.37,4.9,4.9,0,0,1,.22,1.83,8.36,8.36,0,0,1-1.55,4.69,6.27,6.27,0,0,1-1.87,1.6A4.68,4.68,0,0,1,181,69h-1a1.72,1.72,0,0,1-1-.34,2,2,0,0,1-.78-.57,1.43,1.43,0,0,1-.44-.92h0L176.67,73H175l3-15ZM184.49,60a2.82,2.82,0,0,0-2.09-.81,3.19,3.19,0,0,0-1.76.58A4.8,4.8,0,0,0,179.32,61a6.38,6.38,0,0,0-.78,1.72,4.93,4.93,0,0,0-.22,1.83A3.45,3.45,0,0,0,179,66.6a2.6,2.6,0,0,0,2,.8,3.15,3.15,0,0,0,1.76-.45,5,5,0,0,0,1.32-1.26,6,6,0,0,0,.77-1.72,5.22,5.22,0,0,0,.22-1.83,2.8,2.8,0,0,0-.55-2.17Z" transform="translate(0 -8.13)" style="fill:#17140f"/><path d="M191.76,57.79l-2.2,10.87H187.8L190,57.79Zm-1.32-1.94.44-2.18h1.76l-.44,2.18Z" transform="translate(0 -8.13)" style="fill:#17140f"/><path d="M196.17,57.79l-.33,1.6h0A3.89,3.89,0,0,1,197.49,58a4.36,4.36,0,0,1,2.09-.46,2.76,2.76,0,0,1,2.21.69,2.59,2.59,0,0,1,.66,2.17,2.64,2.64,0,0,1-.11.92,3.45,3.45,0,0,1-.22,1.14l-1.22,6.18h-1.65l1.32-6.29V62l.11-.45v-.8a1.44,1.44,0,0,0-.55-1.15,2.82,2.82,0,0,0-1.32-.34,3.26,3.26,0,0,0-1.43.34,4.78,4.78,0,0,0-1.21.92,3.48,3.48,0,0,0-.77,1,5.56,5.56,0,0,0-.44,1.26l-1.22,6H192.2l2.21-10.87Z" transform="translate(0 -8.13)" style="fill:#17140f"/><path d="M212.47,68.66A6.42,6.42,0,0,1,212,70a4.16,4.16,0,0,1-1.87,2.29,6.23,6.23,0,0,1-2.87.69,6.83,6.83,0,0,1-1.54-.23,6.27,6.27,0,0,1-1.32-.57,2.66,2.66,0,0,1-.88-1,3.78,3.78,0,0,1-.33-1.6h1.65a2.75,2.75,0,0,0,.22.91,1.32,1.32,0,0,0,.55.57,1.89,1.89,0,0,0,.77.23h1a4.33,4.33,0,0,0,1.66-.34,2.2,2.2,0,0,0,1-1,4,4,0,0,0,.66-1.37l.44-1.6h0a3,3,0,0,1-1.43,1.25,5,5,0,0,1-1.88.35,3.87,3.87,0,0,1-1.65-.35,4.75,4.75,0,0,1-1.21-.91,9.06,9.06,0,0,1-.77-1.37,5,5,0,0,1-.22-1.84,9,9,0,0,1,.33-2.4,5.72,5.72,0,0,1,1.1-2.17,5.47,5.47,0,0,1,1.65-1.6,3.89,3.89,0,0,1,2.32-.58,3.44,3.44,0,0,1,1.1.12,3.67,3.67,0,0,1,1,.46,4.38,4.38,0,0,1,.77.68,2.32,2.32,0,0,1,.44.92h0l.33-1.95h1.65l-1.87,9.27A4.16,4.16,0,0,1,212.47,68.66Zm-6.5-3.2a2.34,2.34,0,0,0,.44.91,4.85,4.85,0,0,0,.77.69,3.93,3.93,0,0,0,1.1.23,3.29,3.29,0,0,0,1.77-.57,6.57,6.57,0,0,0,1.21-1.26,5.54,5.54,0,0,0,.66-1.72,9.1,9.1,0,0,0,.22-1.72,3.25,3.25,0,0,0-.66-2.05,2.58,2.58,0,0,0-2-.81,2.54,2.54,0,0,0-1.55.58,3.93,3.93,0,0,0-1.1,1.25,4.1,4.1,0,0,0-.66,1.61,8,8,0,0,0-.22,1.6A2.45,2.45,0,0,0,206,65.46Z" transform="translate(0 -8.13)" style="fill:#17140f"/><path d="M227.34,57.79l-.33,1.6h-2.09l-1.33,6.41v.69a.62.62,0,0,0,.33.57,1.44,1.44,0,0,0,.67.11h.55l.44-.11-.33,1.6h-2a1.89,1.89,0,0,1-.77-.23c-.22-.11-.33-.34-.55-.57a2.22,2.22,0,0,1-.22-.91v-.81L223,59.39h-1.76l.33-1.6h1.76l.66-3.2h1.77l-.66,3.2Z" transform="translate(0 -8.13)" style="fill:#17140f"/><path d="M231.86,53.67l-1.22,5.72h0A3.85,3.85,0,0,1,232.3,58a4.36,4.36,0,0,1,2.09-.46,2.72,2.72,0,0,1,2.2.69,2.59,2.59,0,0,1,.66,2.17,2.64,2.64,0,0,1-.11.92,3.45,3.45,0,0,1-.22,1.14l-1.21,6.18H234l1.32-6.29V62l.11-.45v-.8a1.44,1.44,0,0,0-.55-1.15,2.82,2.82,0,0,0-1.32-.34,3.26,3.26,0,0,0-1.43.34,4.66,4.66,0,0,0-1.22.92,3.48,3.48,0,0,0-.77,1,5.56,5.56,0,0,0-.44,1.26l-1.21,6h-1.65l3-15Z" transform="translate(0 -8.13)" style="fill:#17140f"/><path d="M240.34,64.66a4.18,4.18,0,0,0,.22,1.14,1.54,1.54,0,0,0,.66.8,2.12,2.12,0,0,0,.88.46,3.23,3.23,0,0,0,1,.23,2.95,2.95,0,0,0,3-2.18h1.77a5,5,0,0,1-.66,1.61,5.71,5.71,0,0,1-1.11,1.14,3.46,3.46,0,0,1-1.43.69,8.51,8.51,0,0,1-1.65.23,4.36,4.36,0,0,1-2.09-.46,3,3,0,0,1-1.32-1,3.86,3.86,0,0,1-.67-1.37,7,7,0,0,1-.22-1.61,8.66,8.66,0,0,1,.44-2.86,5.23,5.23,0,0,1,1.22-2.17,5.3,5.3,0,0,1,1.76-1.37,4.25,4.25,0,0,1,2.09-.46,4.42,4.42,0,0,1,3.42,1.26,5.85,5.85,0,0,1,1.1,3.54v.8l-.11.58h-7.82A1.41,1.41,0,0,0,240.34,64.66Zm6.27-3.55a4.15,4.15,0,0,0-.44-1,1.54,1.54,0,0,0-.77-.69,2.09,2.09,0,0,0-1.21-.23,5.54,5.54,0,0,0-1.32.23,2,2,0,0,0-1,.69,2.47,2.47,0,0,0-.77,1,4.87,4.87,0,0,0-.44,1.14h6.05a3.65,3.65,0,0,0-.11-1.14Z" transform="translate(0 -8.13)" style="fill:#17140f"/><path d="M262.81,55.39l-2.76,13.27h-1.87l2.75-13.27h-4.84l.33-1.72h11.67l-.33,1.72Z" transform="translate(0 -8.13)" style="fill:#17140f"/><path d="M270.08,68.66l-2.1-15h2l1.54,13h0l6.83-13h2.09l-8.15,15Z" transform="translate(0 -8.13)" style="fill:#17140f"/><path d="M286.38,64.66a4.18,4.18,0,0,0,.22,1.14,1.54,1.54,0,0,0,.66.8,2.12,2.12,0,0,0,.88.46,3.23,3.23,0,0,0,1,.23,2.95,2.95,0,0,0,3-2.18h1.77a5,5,0,0,1-.66,1.61,5.45,5.45,0,0,1-1.11,1.14,3.46,3.46,0,0,1-1.43.69,8.51,8.51,0,0,1-1.65.23,4.36,4.36,0,0,1-2.09-.46,3,3,0,0,1-1.32-1,4.23,4.23,0,0,1-.67-1.37,7,7,0,0,1-.22-1.61,8.42,8.42,0,0,1,.45-2.86,5.22,5.22,0,0,1,1.21-2.17,5.3,5.3,0,0,1,1.76-1.37,4.25,4.25,0,0,1,2.09-.46,4.4,4.4,0,0,1,3.42,1.26,5.85,5.85,0,0,1,1.1,3.54v.8l-.11.58h-7.82A1.09,1.09,0,0,0,286.38,64.66Zm6.28-3.55a4.61,4.61,0,0,0-.45-1,1.54,1.54,0,0,0-.77-.69,2.09,2.09,0,0,0-1.21-.23,5.54,5.54,0,0,0-1.32.23,2,2,0,0,0-1,.69,2.47,2.47,0,0,0-.77,1,4.87,4.87,0,0,0-.44,1.14h6.06c0-.45-.11-.8-.11-1.14Z" transform="translate(0 -8.13)" style="fill:#17140f"/><path d="M303.12,59.74a2.6,2.6,0,0,0-1.65-.58,3.21,3.21,0,0,0-1.77.46,4.05,4.05,0,0,0-1.21,1.15,4.25,4.25,0,0,0-.77,1.6,4.9,4.9,0,0,0-.22,1.83,3.62,3.62,0,0,0,.11,1.14,4,4,0,0,0,.44,1,4.85,4.85,0,0,0,.77.69,2.09,2.09,0,0,0,1.21.23,3.64,3.64,0,0,0,1.88-.57,2.81,2.81,0,0,0,1.1-1.61h1.76A5.77,5.77,0,0,1,303.12,68a4.36,4.36,0,0,1-3.09.91,3.83,3.83,0,0,1-3.19-1.26,4.75,4.75,0,0,1-1.1-3.43,9.91,9.91,0,0,1,.33-2.52,7.92,7.92,0,0,1,1.1-2.17,5.16,5.16,0,0,1,1.87-1.6,6.17,6.17,0,0,1,2.43-.58,4.48,4.48,0,0,1,2.86.92,3.63,3.63,0,0,1,1.1,2.74h-1.76A2.1,2.1,0,0,0,303.12,59.74Z" transform="translate(0 -8.13)" style="fill:#17140f"/><path d="M306.86,61.8A7.74,7.74,0,0,1,308,59.62a6.57,6.57,0,0,1,1.87-1.6,6.28,6.28,0,0,1,2.42-.57,4.13,4.13,0,0,1,3.2,1.14,4.68,4.68,0,0,1,1.1,3.32,6.37,6.37,0,0,1-.44,2.52A6.45,6.45,0,0,1,315,66.6a5.16,5.16,0,0,1-1.87,1.6,5.71,5.71,0,0,1-2.42.58,5.38,5.38,0,0,1-1.87-.35,3.9,3.9,0,0,1-2.21-2.4,4.89,4.89,0,0,1-.33-1.83A10.65,10.65,0,0,1,306.86,61.8Zm2,4.69a2.47,2.47,0,0,0,2.09.8,3.94,3.94,0,0,0,1.65-.46,6.29,6.29,0,0,0,1.21-1.26,6.16,6.16,0,0,0,.77-1.71,9.31,9.31,0,0,0,.22-1.72,3.72,3.72,0,0,0-.11-1.15,2.71,2.71,0,0,0-1.32-1.6,4.7,4.7,0,0,0-1.21-.23,3.16,3.16,0,0,0-1.76.46,6.57,6.57,0,0,0-1.21,1.26,7.94,7.94,0,0,0-.77,1.72,9.1,9.1,0,0,0-.22,1.71,3,3,0,0,0,.66,2.18Z" transform="translate(0 -8.13)" style="fill:#17140f"/><path d="M324.27,59.62a2.49,2.49,0,0,0-1.55-.46H322a1.58,1.58,0,0,0-.66.23,2,2,0,0,0-.55.46,1.69,1.69,0,0,0-.22.69,1.64,1.64,0,0,0,.22.68,2.2,2.2,0,0,0,.66.46c.33.12.55.34.88.46l1,.46c.33.11.66.34,1,.45a2.46,2.46,0,0,1,.88.58,4.69,4.69,0,0,1,.66.8,1.92,1.92,0,0,1,.22,1.14,2.94,2.94,0,0,1-.44,1.6,2.15,2.15,0,0,1-1,1,6.9,6.9,0,0,1-1.32.58,6.66,6.66,0,0,1-1.55.22,8.49,8.49,0,0,1-1.65-.22,6.9,6.9,0,0,1-1.32-.58,4.34,4.34,0,0,1-.88-1.14,4.73,4.73,0,0,1-.33-1.72h1.65a1.74,1.74,0,0,0,.22,1,3,3,0,0,0,.55.69,7.44,7.44,0,0,0,.88.34,2.8,2.8,0,0,0,1,.12h.88a2.11,2.11,0,0,0,.78-.23,2.42,2.42,0,0,0,.55-.46,1.71,1.71,0,0,0,.22-.8,1.69,1.69,0,0,0-.22-.69,2.16,2.16,0,0,0-.66-.45c-.33-.12-.56-.35-.89-.46l-1-.46c-.33-.11-.66-.34-1-.46a2.31,2.31,0,0,1-.88-.57,5.12,5.12,0,0,1-.66-.8,3.46,3.46,0,0,1-.22-1,3.1,3.1,0,0,1,.33-1.37,6.8,6.8,0,0,1,.88-1,4.11,4.11,0,0,1,1.21-.58,6.49,6.49,0,0,1,1.54-.22,7.43,7.43,0,0,1,1.55.22,4.11,4.11,0,0,1,1.21.58,3.82,3.82,0,0,1,.88,1,3.75,3.75,0,0,1,.33,1.6h-2A1.9,1.9,0,0,0,324.27,59.62Z" transform="translate(0 -8.13)" style="fill:#17140f"/><path d="M330,71.52a4.69,4.69,0,0,1-.66.8,2.46,2.46,0,0,1-.88.58,3.91,3.91,0,0,1-1.1.22h-.66a.84.84,0,0,1-.55-.22l.33-1.49c.11.11.33.11.44.23h.44a1.73,1.73,0,0,0,1-.35c.22-.23.44-.57.66-.8l1-1.83-1.87-10.87H330l1.22,8.58h0l4.4-8.58h1.87l-6.94,12.7Z" transform="translate(0 -8.13)" style="fill:#17140f"/><path d="M343.65,59.62a2.48,2.48,0,0,0-1.54-.46h-.77a1.58,1.58,0,0,0-.66.23,2,2,0,0,0-.55.46,1.69,1.69,0,0,0-.22.69,1.64,1.64,0,0,0,.22.68,2.2,2.2,0,0,0,.66.46c.33.12.55.34.88.46l1,.46c.33.11.66.34,1,.45a2.46,2.46,0,0,1,.88.58,4.69,4.69,0,0,1,.66.8,1.92,1.92,0,0,1,.22,1.14,2.94,2.94,0,0,1-.44,1.6,2.15,2.15,0,0,1-1,1,6.9,6.9,0,0,1-1.32.58,6.49,6.49,0,0,1-1.54.22,8.49,8.49,0,0,1-1.65-.22,7.26,7.26,0,0,1-1.33-.58,4.34,4.34,0,0,1-.88-1.14,4.73,4.73,0,0,1-.33-1.72h1.66a1.74,1.74,0,0,0,.22,1,3,3,0,0,0,.55.69,7.44,7.44,0,0,0,.88.34,2.8,2.8,0,0,0,1,.12h.88a2.06,2.06,0,0,0,.77-.23,2.42,2.42,0,0,0,.55-.46,1.71,1.71,0,0,0,.22-.8,1.69,1.69,0,0,0-.22-.69,2.16,2.16,0,0,0-.66-.45c-.33-.12-.55-.35-.88-.46l-1-.46c-.33-.11-.66-.34-1-.46a2.31,2.31,0,0,1-.88-.57,5.12,5.12,0,0,1-.66-.8,3.48,3.48,0,0,1-.23-1,3.11,3.11,0,0,1,.34-1.37,6.8,6.8,0,0,1,.88-1,4.11,4.11,0,0,1,1.21-.58,6.49,6.49,0,0,1,1.54-.22,7.43,7.43,0,0,1,1.54.22,4.11,4.11,0,0,1,1.21.58,3.82,3.82,0,0,1,.88,1,3.61,3.61,0,0,1,.34,1.6h-1.77C344.42,60.42,344.2,59.85,343.65,59.62Z" transform="translate(0 -8.13)" style="fill:#17140f"/><path d="M353.34,57.79l-.33,1.6h-2.09L349.6,65.8v.69a.62.62,0,0,0,.33.57,1.4,1.4,0,0,0,.66.11h.55l.44-.22-.33,1.6h-2.09a2.06,2.06,0,0,1-.77-.23c-.22-.12-.33-.34-.55-.57a2.27,2.27,0,0,1-.22-.92v-.91l1.32-6.76h-1.76l.33-1.6h1.76l.66-3.09h1.76L351,57.68Z" transform="translate(0 -8.13)" style="fill:#17140f"/><path d="M355.11,64.66a4.18,4.18,0,0,0,.22,1.14,1.54,1.54,0,0,0,.66.8,2.12,2.12,0,0,0,.88.46,3.23,3.23,0,0,0,1,.23,2.95,2.95,0,0,0,3-2.18h1.77a5,5,0,0,1-.66,1.61,5.22,5.22,0,0,1-1.11,1.14,3.46,3.46,0,0,1-1.43.69,8.51,8.51,0,0,1-1.65.23,6.15,6.15,0,0,1-2.09-.35,3,3,0,0,1-1.32-1,3.84,3.84,0,0,1-.66-1.37,7,7,0,0,1-.22-1.6,8.58,8.58,0,0,1,.44-2.86,5.91,5.91,0,0,1,3-3.55,4.36,4.36,0,0,1,2.09-.46,4.48,4.48,0,0,1,3.42,1.26,5.88,5.88,0,0,1,1.1,3.55v.8l-.11.57h-8.15C355.22,64.08,355.11,64.43,355.11,64.66Zm6.28-3.55a3.85,3.85,0,0,0-.45-1,1.54,1.54,0,0,0-.77-.69,2.09,2.09,0,0,0-1.21-.23,5.54,5.54,0,0,0-1.32.23,2,2,0,0,0-1,.69,2.47,2.47,0,0,0-.77,1,4.87,4.87,0,0,0-.44,1.14h6.06a3.65,3.65,0,0,0-.11-1.14Z" transform="translate(0 -8.13)" style="fill:#17140f"/><path d="M367.77,57.79l-.44,1.6h0A4.83,4.83,0,0,1,369,58a3.22,3.22,0,0,1,2-.46,2.81,2.81,0,0,1,1.65.46,1.84,1.84,0,0,1,.88,1.6A4.51,4.51,0,0,1,375,58.25a4.43,4.43,0,0,1,2-.57,3.74,3.74,0,0,1,1.1.11,4,4,0,0,1,1,.46,3.82,3.82,0,0,1,.66.69,1.92,1.92,0,0,1,.22,1.14,4.41,4.41,0,0,1-.11,1.14,7.51,7.51,0,0,1-.22,1l-1.21,6.41H376.7l1.54-6.86a.92.92,0,0,1,.11-.58v-.57a1.13,1.13,0,0,0-.44-1,2.27,2.27,0,0,0-1.1-.46,2.05,2.05,0,0,0-.78.12l-.66.34c-.22.12-.44.35-.66.46l-.55.57a3.8,3.8,0,0,0-.66,1.15c-.11.45-.22.91-.33,1.25l-1.1,5.61h-1.76l1.21-6.18a5.24,5.24,0,0,0,.22-1.14c0-.23.11-.46.11-.69a1.65,1.65,0,0,0-.33-1,1.27,1.27,0,0,0-1.1-.34,2.31,2.31,0,0,0-1.43.46,4.86,4.86,0,0,0-1.22.91A4.06,4.06,0,0,0,367,61.8l-.33,1.37-1.21,5.72h-1.65L366,58Z" transform="translate(0 -8.13)" style="fill:#17140f"/><path d="M137,98.87a.87.87,0,0,0,.11.57c.11.12.22.23.44.12h.55v1.6l-.33.11-.33.12h-.77a3.93,3.93,0,0,1-1.1-.23,1.21,1.21,0,0,1-.55-1,3.14,3.14,0,0,1-1.54.92,5.23,5.23,0,0,1-1.88.34,5.54,5.54,0,0,1-1.32-.23,3.28,3.28,0,0,1-1.1-.57,3,3,0,0,1-.77-.92,3.07,3.07,0,0,1-.33-1.26,4.17,4.17,0,0,1,.33-1.6,3.32,3.32,0,0,1,.88-.91,3.72,3.72,0,0,1,1.21-.46c.44-.12.88-.12,1.32-.23a3.44,3.44,0,0,1,1.1-.12c.34,0,.67-.11,1-.11l.66-.34a.87.87,0,0,0,.22-.69,1.69,1.69,0,0,0-.22-.69,1.72,1.72,0,0,0-.44-.45c-.22-.12-.44-.12-.66-.23h-.67a2.63,2.63,0,0,0-1.54.46,1.31,1.31,0,0,0-.66,1.25h-2.09a3.85,3.85,0,0,1,.44-1.6,2.2,2.2,0,0,1,1-1,5.21,5.21,0,0,1,1.43-.57,7.79,7.79,0,0,1,1.54-.11,7.31,7.31,0,0,1,1.55.11,3.72,3.72,0,0,1,1.21.46,3.46,3.46,0,0,1,.88.91,3.17,3.17,0,0,1,.33,1.38ZM134.93,96a4,4,0,0,1-1.21.46,8,8,0,0,0-1.55.23c-.22,0-.44.11-.66.11s-.44.12-.55.34-.33.35-.44.46a1.52,1.52,0,0,0-.11.69,1.69,1.69,0,0,0,.22.69,2.41,2.41,0,0,0,.55.45c.22.12.44.12.66.23h.66a1.92,1.92,0,0,0,.78-.11,5.21,5.21,0,0,0,.77-.35,2.8,2.8,0,0,0,.66-.57,1.26,1.26,0,0,0,.22-.91Z" transform="translate(0 -8.13)" style="fill:#0067b0"/><path d="M145.06,87h5.62a5.92,5.92,0,0,1,2.75.57,5.2,5.2,0,0,1,1.87,1.6,8.82,8.82,0,0,1,1.11,2.29,11.62,11.62,0,0,1,0,5.5,6,6,0,0,1-1.11,2.28,5.28,5.28,0,0,1-1.87,1.61,7.47,7.47,0,0,1-2.75.57h-5.62Zm2.31,12.13h2.32a8,8,0,0,0,2.31-.34,4.31,4.31,0,0,0,1.43-1,4.1,4.1,0,0,0,.66-1.61,12.2,12.2,0,0,0,0-4,4.12,4.12,0,0,0-.66-1.6,3.34,3.34,0,0,0-1.43-1,5.47,5.47,0,0,0-2.31-.35h-2.32Z" transform="translate(0 -8.13)" style="fill:#0067b0"/><path d="M158.5,87h2.2v2.17h-2.2Zm0,3.89h2.2v10.19h-2.2Z" transform="translate(0 -8.13)" style="fill:#0067b0"/><path d="M172.16,100.59a4.38,4.38,0,0,1-1.22,3.43,5.12,5.12,0,0,1-3.63,1.14,7.26,7.26,0,0,1-1.54-.11,2.75,2.75,0,0,1-1.32-.57,2.2,2.2,0,0,1-1-1,2.65,2.65,0,0,1-.45-1.6h2.21a1.28,1.28,0,0,0,.33.8,1.07,1.07,0,0,0,.55.45,1.46,1.46,0,0,0,.66.23h.77a2.27,2.27,0,0,0,1.87-.68,3.21,3.21,0,0,0,.66-2V99.33h0a4.78,4.78,0,0,1-1.21,1.37,3.08,3.08,0,0,1-1.76.46,3.83,3.83,0,0,1-2-.46,3.25,3.25,0,0,1-1.32-1.14,4.88,4.88,0,0,1-.78-1.72,6.58,6.58,0,0,1-.22-2.06,5.49,5.49,0,0,1,.33-1.94,4.55,4.55,0,0,1,.89-1.61,7.24,7.24,0,0,1,1.43-1.14,5,5,0,0,1,1.87-.46,3.41,3.41,0,0,1,1.76.46,2.24,2.24,0,0,1,1.21,1.26h0V91h2.21Zm-4.74-1.26a2.23,2.23,0,0,0,2.09-1.15A3.43,3.43,0,0,0,170,97a5.37,5.37,0,0,0,.11-1.26,4.89,4.89,0,0,0-.11-1.26,2.92,2.92,0,0,0-.44-1,2.67,2.67,0,0,0-.77-.8,1.49,1.49,0,0,0-1.21-.23,2.15,2.15,0,0,0-1.21.35,2.56,2.56,0,0,0-.77.8,3.43,3.43,0,0,0-.44,1.14,7.27,7.27,0,0,0,0,2.52,2.92,2.92,0,0,0,.44,1,2.67,2.67,0,0,0,.77.8C166.54,99.33,167,99.33,167.42,99.33Z" transform="translate(0 -8.13)" style="fill:#0067b0"/><path d="M174.47,87h2.2v2.17h-2.2Zm0,3.89h2.2v10.19h-2.2Z" transform="translate(0 -8.13)" style="fill:#0067b0"/><path d="M179.21,87h3.3l3.75,11.1h0L189.89,87h3.3v14.19H191.1v-11h0l-3.74,10.88h-2l-3.74-10.88h0v10.88h-2.31V87Z" transform="translate(0 -8.13)" style="fill:#0067b0"/><path d="M197.6,96.58c0,.35.11.8.11,1.15a4.31,4.31,0,0,0,.44,1c.22.23.55.45.77.68a2.09,2.09,0,0,0,1.21.23,2.68,2.68,0,0,0,1.55-.46,3.25,3.25,0,0,0,.88-1.25h2.09a4.91,4.91,0,0,1-1.54,2.63,3.62,3.62,0,0,1-1.32.68,6.15,6.15,0,0,1-1.55.23,4.25,4.25,0,0,1-2.09-.46,4.78,4.78,0,0,1-1.54-1.14,4.35,4.35,0,0,1-1-1.72,7.37,7.37,0,0,1-.33-2.17,6.72,6.72,0,0,1,.33-2.06,4.35,4.35,0,0,1,1-1.72,4.66,4.66,0,0,1,3.52-1.6,4.4,4.4,0,0,1,2.1.46,5.82,5.82,0,0,1,1.54,1.37,6.15,6.15,0,0,1,.88,2,4.84,4.84,0,0,1,.11,2.17Zm5.07-1.49a3.52,3.52,0,0,0-.22-1c-.11-.34-.33-.57-.44-.91a1.89,1.89,0,0,0-.78-.57,2.25,2.25,0,0,0-2,0,1.92,1.92,0,0,0-.77.57,2.52,2.52,0,0,0-.55.91,3.52,3.52,0,0,0-.22,1Z" transform="translate(0 -8.13)" style="fill:#0067b0"/><path d="M215.77,101.16h-2.09V99.79h0a2.43,2.43,0,0,1-1.32,1.26,5,5,0,0,1-1.76.34,6.51,6.51,0,0,1-2.1-.34,4.26,4.26,0,0,1-2.42-2.87,6.86,6.86,0,0,1-.33-2.17,9,9,0,0,1,.33-2.4,4.76,4.76,0,0,1,1-1.6,2.52,2.52,0,0,1,1.32-.92,3.78,3.78,0,0,1,1.55-.34,3,3,0,0,1,1,.11c.33.12.66.12.88.34a5.58,5.58,0,0,1,.77.46l.66.69h0V87.08h2.2Zm-7.6-5c0,.46.11.92.11,1.26a3.58,3.58,0,0,0,.44,1.15,3.1,3.1,0,0,0,.89.8,2.32,2.32,0,0,0,2.42,0,3.06,3.06,0,0,0,.88-.8,2.49,2.49,0,0,0,.44-1.15,5.28,5.28,0,0,0,.11-1.26,4.58,4.58,0,0,0-.77-2.63,2.21,2.21,0,0,0-2-.91,2.82,2.82,0,0,0-1.32.34,3.1,3.1,0,0,0-.89.8,2.45,2.45,0,0,0-.44,1.15c.22.34.11.8.11,1.25Z" transform="translate(0 -8.13)" style="fill:#0067b0"/><path d="M218.2,87h2.2v2.17h-2.2Zm0,3.89h2.2v10.19h-2.2Z" transform="translate(0 -8.13)" style="fill:#0067b0"/><path d="M231,98.87a.87.87,0,0,0,.11.57c.11.12.22.23.44.12h.56v1.6l-.34.11-.33.12h-.77a3.93,3.93,0,0,1-1.1-.23,1.21,1.21,0,0,1-.55-1,3.14,3.14,0,0,1-1.54.92,5.14,5.14,0,0,1-1.87.34,5.54,5.54,0,0,1-1.32-.23,3.24,3.24,0,0,1-1.11-.57,3,3,0,0,1-.77-.92,3.07,3.07,0,0,1-.33-1.26,4.17,4.17,0,0,1,.33-1.6,3.32,3.32,0,0,1,.88-.91,3.69,3.69,0,0,1,1.22-.46c.44-.12.88-.12,1.32-.23a3.8,3.8,0,0,1,1.1-.12c.33,0,.66-.11,1-.11l.66-.34a.87.87,0,0,0,.22-.69,1.69,1.69,0,0,0-.22-.69,1.72,1.72,0,0,0-.44-.45c-.22-.12-.44-.12-.66-.23h-.66a2.63,2.63,0,0,0-1.54.46,1.31,1.31,0,0,0-.66,1.25h-2.21a3.85,3.85,0,0,1,.44-1.6,2.2,2.2,0,0,1,1-1,5.41,5.41,0,0,1,1.44-.57,7.79,7.79,0,0,1,1.54-.11,7.26,7.26,0,0,1,1.54.11,3.72,3.72,0,0,1,1.21.46,3.46,3.46,0,0,1,.88.91,3.17,3.17,0,0,1,.33,1.38ZM228.77,96a4,4,0,0,1-1.21.46,7.88,7.88,0,0,0-1.54.23c-.22,0-.44.11-.66.11s-.44.12-.55.34-.33.35-.44.46a1.52,1.52,0,0,0-.11.69,1.69,1.69,0,0,0,.22.69,2.41,2.41,0,0,0,.55.45c.22.12.44.12.66.23h.66a1.87,1.87,0,0,0,.77-.11,5.21,5.21,0,0,0,.77-.35,2.8,2.8,0,0,0,.66-.57,1.26,1.26,0,0,0,.22-.91Z" transform="translate(0 -8.13)" style="fill:#0067b0"/><path d="M239,87h6.5a4.72,4.72,0,0,1,3.42,1,3.37,3.37,0,0,1,1.1,2.86,4.77,4.77,0,0,1-.33,1.72,3.31,3.31,0,0,1-.66,1,2,2,0,0,1-.77.57l-.55.23h0a1.46,1.46,0,0,1,.66.23c.22.11.44.34.66.45a2.57,2.57,0,0,1,.55.92,6,6,0,0,1,.22,1.37,8.1,8.1,0,0,0,.22,2.29,3.48,3.48,0,0,0,.55,1.49h-2.53a1.9,1.9,0,0,1-.33-1v-1a9.09,9.09,0,0,0-.11-1.72,3.52,3.52,0,0,0-.44-1.14,1.84,1.84,0,0,0-.89-.69,5.54,5.54,0,0,0-1.32-.23h-3.52v5.84H239Zm2.32,6.52h3.85a2.51,2.51,0,0,0,1.76-.57,1.92,1.92,0,0,0,.56-1.72,2.12,2.12,0,0,0-.22-1.14,3.09,3.09,0,0,0-.56-.69A5.28,5.28,0,0,0,246,89c-.33,0-.55-.11-.88-.11h-3.85v4.57Z" transform="translate(0 -8.13)" style="fill:#0067b0"/><path d="M253.77,96.58c0,.35.11.8.11,1.15a4.31,4.31,0,0,0,.44,1c.22.23.56.45.78.68a2.09,2.09,0,0,0,1.21.23,2.63,2.63,0,0,0,1.54-.46,3.25,3.25,0,0,0,.88-1.25h2.09a4.91,4.91,0,0,1-1.54,2.63,3.62,3.62,0,0,1-1.32.68,6,6,0,0,1-1.54.23,4.59,4.59,0,0,1-2.1-.46,4.78,4.78,0,0,1-1.54-1.14,4.35,4.35,0,0,1-1-1.72,7.37,7.37,0,0,1-.33-2.17,6.72,6.72,0,0,1,.33-2.06,4.35,4.35,0,0,1,1-1.72,4.68,4.68,0,0,1,3.53-1.6,4.36,4.36,0,0,1,2.09.46,5.82,5.82,0,0,1,1.54,1.37,6.15,6.15,0,0,1,.88,2,4.84,4.84,0,0,1,.11,2.17Zm5.07-1.49a3.52,3.52,0,0,0-.22-1c-.11-.34-.33-.57-.44-.91a1.92,1.92,0,0,0-.77-.57,2.25,2.25,0,0,0-2,0,1.92,1.92,0,0,0-.77.57,2.41,2.41,0,0,0-.56.91,3.52,3.52,0,0,0-.22,1Z" transform="translate(0 -8.13)" style="fill:#0067b0"/><path d="M264.35,97.84a1.75,1.75,0,0,0,.77,1.37,3.46,3.46,0,0,0,1.54.46h.66a2.55,2.55,0,0,0,.77-.23,1.12,1.12,0,0,0,.55-.45,1.69,1.69,0,0,0,.22-.69.84.84,0,0,0-.33-.69,1.8,1.8,0,0,0-.77-.46l-1-.34-1.21-.23c-.44-.11-.77-.23-1.21-.34a4.58,4.58,0,0,1-1-.57,1.8,1.8,0,0,1-.66-.92,1.74,1.74,0,0,1-.22-1.26,2,2,0,0,1,.44-1.37,2.68,2.68,0,0,1,1-.92,6.24,6.24,0,0,1,1.32-.45,5.34,5.34,0,0,1,1.43-.12,6.67,6.67,0,0,1,1.54.12,3.86,3.86,0,0,1,1.21.57,4.29,4.29,0,0,1,1,1,3.33,3.33,0,0,1,.44,1.49h-2.32a1.15,1.15,0,0,0-.66-1,2.68,2.68,0,0,0-1.32-.23H266a4.76,4.76,0,0,0-.55.11c-.22.12-.33.12-.44.35a.87.87,0,0,0-.22.57,1,1,0,0,0,.33.68,1.71,1.71,0,0,0,.77.46l1,.34,1.21.23,1.21.35a4.25,4.25,0,0,1,1,.57,5.19,5.19,0,0,1,.77.8,2.37,2.37,0,0,1,.33,1.26,2.94,2.94,0,0,1-.44,1.6,2.89,2.89,0,0,1-1,1,6.2,6.2,0,0,1-1.55.57,6,6,0,0,1-1.54.23,8.85,8.85,0,0,1-1.76-.23,2.93,2.93,0,0,1-1.32-.68,4.56,4.56,0,0,1-.88-1.15,3.78,3.78,0,0,1-.33-1.6Z" transform="translate(0 -8.13)" style="fill:#0067b0"/><path d="M274.26,96.58c0,.35.11.8.11,1.15a4.31,4.31,0,0,0,.44,1c.22.23.55.45.77.68a2.09,2.09,0,0,0,1.21.23,2.65,2.65,0,0,0,1.55-.46,3.25,3.25,0,0,0,.88-1.25h2.09a4.91,4.91,0,0,1-1.54,2.63,3.62,3.62,0,0,1-1.32.68,6,6,0,0,1-1.55.23,4.53,4.53,0,0,1-2.09-.46,4.78,4.78,0,0,1-1.54-1.14,4.35,4.35,0,0,1-1-1.72A7.37,7.37,0,0,1,272,96a6.72,6.72,0,0,1,.33-2.06,4.35,4.35,0,0,1,1-1.72,4.66,4.66,0,0,1,3.52-1.6,4.37,4.37,0,0,1,2.1.46,5.82,5.82,0,0,1,1.54,1.37,6.15,6.15,0,0,1,.88,2,4.84,4.84,0,0,1,.11,2.17Zm5.07-1.49a3.52,3.52,0,0,0-.22-1c-.11-.22-.33-.45-.44-.68a1.92,1.92,0,0,0-.77-.57,3,3,0,0,0-1-.23,3,3,0,0,0-1,.23,1.92,1.92,0,0,0-.77.57,2.52,2.52,0,0,0-.55.91,3.52,3.52,0,0,0-.22,1Z" transform="translate(0 -8.13)" style="fill:#0067b0"/><path d="M291.44,98.87a.87.87,0,0,0,.11.57c.11.12.22.23.44.12h.55v1.6l-.33.11-.33.12h-.77a3.93,3.93,0,0,1-1.1-.23,1.21,1.21,0,0,1-.55-1,3.14,3.14,0,0,1-1.54.92,5.14,5.14,0,0,1-1.87.34,5.71,5.71,0,0,1-1.33-.23,3.28,3.28,0,0,1-1.1-.57,3,3,0,0,1-.77-.92,3.07,3.07,0,0,1-.33-1.26,4.17,4.17,0,0,1,.33-1.6,3.32,3.32,0,0,1,.88-.91,3.72,3.72,0,0,1,1.21-.46c.45-.12.89-.12,1.33-.23a3.8,3.8,0,0,1,1.1-.12c.33,0,.66-.11,1-.11l.66-.34a1.19,1.19,0,0,0,0-1.38,1.72,1.72,0,0,0-.44-.45c-.22-.12-.44-.12-.66-.23h-.66a2.63,2.63,0,0,0-1.54.46,1.31,1.31,0,0,0-.66,1.25h-2.21a3.85,3.85,0,0,1,.44-1.6,2.2,2.2,0,0,1,1-1,5.28,5.28,0,0,1,1.44-.57,7.79,7.79,0,0,1,1.54-.11,7.26,7.26,0,0,1,1.54.11,3.72,3.72,0,0,1,1.21.46,3.46,3.46,0,0,1,.88.91,3.17,3.17,0,0,1,.33,1.38ZM289.24,96a4,4,0,0,1-1.21.46,7.88,7.88,0,0,0-1.54.23c-.22,0-.44.11-.66.11s-.44.12-.55.34a1.92,1.92,0,0,0-.45.46,1.52,1.52,0,0,0-.11.69,1.69,1.69,0,0,0,.22.69,2.74,2.74,0,0,0,.56.45c.22.12.44.12.66.23h.66a1.87,1.87,0,0,0,.77-.11,5.21,5.21,0,0,0,.77-.35,2.8,2.8,0,0,0,.66-.57,1.26,1.26,0,0,0,.22-.91Z" transform="translate(0 -8.13)" style="fill:#0067b0"/><path d="M293.76,90.86h2.09v2h0a5,5,0,0,1,.33-.8c.22-.23.44-.58.66-.69a6.11,6.11,0,0,1,.88-.57,3,3,0,0,1,1-.23h.88v2.17h-1a3.23,3.23,0,0,0-1,.23,1.72,1.72,0,0,0-.88.69,3.56,3.56,0,0,0-.55,1.14,7,7,0,0,0-.22,1.6v4.92h-2.2Z" transform="translate(0 -8.13)" style="fill:#0067b0"/><path d="M306.75,94.29a2.16,2.16,0,0,0-.77-1.48,2.42,2.42,0,0,0-1.54-.46c-.33,0-.55.11-.88.11a2.57,2.57,0,0,0-.88.57,2.43,2.43,0,0,0-.66,1.15,3.8,3.8,0,0,0-.22,1.94,4.85,4.85,0,0,0,.11,1.26,3.58,3.58,0,0,0,.44,1.15,2.67,2.67,0,0,0,.77.8,2.14,2.14,0,0,0,1.21.34,2.58,2.58,0,0,0,1.54-.57,3.07,3.07,0,0,0,.77-1.72h2.21a4.82,4.82,0,0,1-1.55,3.09,4.35,4.35,0,0,1-3.08,1,4.53,4.53,0,0,1-2.09-.46,4.78,4.78,0,0,1-1.54-1.14,3.21,3.21,0,0,1-.89-1.72,6.67,6.67,0,0,1-.33-2.06A7.47,7.47,0,0,1,299.7,94a4.2,4.2,0,0,1,.89-1.72,4,4,0,0,1,1.54-1.14,4.66,4.66,0,0,1,2.09-.46,8.51,8.51,0,0,1,1.65.23,3,3,0,0,1,1.32.69,3.18,3.18,0,0,1,1,1.14,3.85,3.85,0,0,1,.44,1.6Z" transform="translate(0 -8.13)" style="fill:#0067b0"/><path d="M310.72,87h2.2v5.26h0a3,3,0,0,1,1.21-1.14,3.17,3.17,0,0,1,1.77-.46,3.47,3.47,0,0,1,2.53.92,3.69,3.69,0,0,1,1,2.63v7h-2.09V94.75a3,3,0,0,0-.44-1.71,2,2,0,0,0-1.55-.58,3.23,3.23,0,0,0-1,.23,2.12,2.12,0,0,0-.77.57,2.39,2.39,0,0,0-.44.92,3.46,3.46,0,0,0-.22,1v6.06h-2.2Z" transform="translate(0 -8.13)" style="fill:#0067b0"/><path d="M339.14,101.16h-1.55l-.44-1.6a8.5,8.5,0,0,1-1.87,1.6,4.8,4.8,0,0,1-2.2.46,7.56,7.56,0,0,1-2.76-.57,7,7,0,0,1-2.09-1.61,8.16,8.16,0,0,1-1.32-2.4,10.12,10.12,0,0,1,0-5.72,6.25,6.25,0,0,1,1.32-2.4,7.39,7.39,0,0,1,2.09-1.61,5.83,5.83,0,0,1,2.76-.57,6.92,6.92,0,0,1,2.09.34,5.21,5.21,0,0,1,1.76.92,4.83,4.83,0,0,1,1.33,1.6,7.59,7.59,0,0,1,.66,2.06H336.6a3.06,3.06,0,0,0-1.21-2.06,3.28,3.28,0,0,0-1.1-.57,4.7,4.7,0,0,0-1.21-.23,3.53,3.53,0,0,0-1.87.46,3.58,3.58,0,0,0-1.33,1.26,11.7,11.7,0,0,0-.77,1.71,8.24,8.24,0,0,0,0,4,4.72,4.72,0,0,0,2.1,3,3.44,3.44,0,0,0,1.87.46,7.81,7.81,0,0,0,1.65-.23,2.74,2.74,0,0,0,1.21-.8,4.67,4.67,0,0,0,.77-1.26,7,7,0,0,0,.22-1.6H333.3V93.72h5.84Z" transform="translate(0 -8.13)" style="fill:#0067b0"/><path d="M341.45,90.86h2.09v2h0a5,5,0,0,1,.33-.8c.22-.23.44-.58.66-.69a6.11,6.11,0,0,1,.88-.57,3,3,0,0,1,1-.23h.88v2.17h-.88a3.29,3.29,0,0,0-1,.23,1.72,1.72,0,0,0-.88.69,3.56,3.56,0,0,0-.55,1.14,7,7,0,0,0-.22,1.6v4.92h-2.2Z" transform="translate(0 -8.13)" style="fill:#0067b0"/><path d="M352.35,101.39a7.64,7.64,0,0,1-2.2-.34,5,5,0,0,1-1.54-1.15,4.35,4.35,0,0,1-1-1.72,7.3,7.3,0,0,1,0-4.34,4.35,4.35,0,0,1,1-1.72A5.42,5.42,0,0,1,350.15,91a5.26,5.26,0,0,1,4.19,0,4.78,4.78,0,0,1,1.54,1.14,4.35,4.35,0,0,1,1,1.72,7.3,7.3,0,0,1,0,4.34,4.35,4.35,0,0,1-1,1.72,5.63,5.63,0,0,1-1.54,1.15A6.3,6.3,0,0,1,352.35,101.39Zm0-1.72a2.2,2.2,0,0,0,1.22-.34,3.06,3.06,0,0,0,.88-.8,5.47,5.47,0,0,0,.55-1.15,5.32,5.32,0,0,0,0-2.63,2.18,2.18,0,0,0-.55-1.14,2.93,2.93,0,0,0-.88-.8,2.51,2.51,0,0,0-2.54,0,2.93,2.93,0,0,0-.88.8,5.4,5.4,0,0,0-.55,1.14,5.32,5.32,0,0,0,0,2.63,2.25,2.25,0,0,0,.55,1.15,2,2,0,0,0,.88.8A2.82,2.82,0,0,0,352.35,99.67Z" transform="translate(0 -8.13)" style="fill:#0067b0"/><path d="M367.77,101.16h-2.09V99.79h0a2.68,2.68,0,0,1-1.21,1.26,2.59,2.59,0,0,1-1.65.45,3.47,3.47,0,0,1-2.87-1,4.42,4.42,0,0,1-.88-3.09V90.86h2.21V97a3,3,0,0,0,.44,1.95,2.06,2.06,0,0,0,1.43.57,3.25,3.25,0,0,0,1.1-.23,2,2,0,0,0,.77-.57,2.39,2.39,0,0,0,.44-.92,3.65,3.65,0,0,0,.11-1.14V90.86h2.2Z" transform="translate(0 -8.13)" style="fill:#0067b0"/><path d="M370.09,90.86h2.09v1.37h0A2.38,2.38,0,0,1,373.5,91a4.8,4.8,0,0,1,1.76-.35,4,4,0,0,1,2,.46A4.21,4.21,0,0,1,379.67,94a6.9,6.9,0,0,1,.33,2.17,10.46,10.46,0,0,1-.22,1.95,6,6,0,0,1-.77,1.72,3.72,3.72,0,0,1-3.2,1.6,2.8,2.8,0,0,1-1-.12,2.07,2.07,0,0,1-.88-.22,5.58,5.58,0,0,1-.77-.46l-.66-.69h0v5.15h-2.2Zm7.6,5.15a5.84,5.84,0,0,0-.22-1.37,3.72,3.72,0,0,0-.55-1.15,3,3,0,0,0-.89-.8,2.14,2.14,0,0,0-1.21-.34,2.66,2.66,0,0,0-2.09,1,3.79,3.79,0,0,0-.66,2.63,8.14,8.14,0,0,0,.22,1.49,3.56,3.56,0,0,0,.55,1.14,2.93,2.93,0,0,0,.88.8,1.46,1.46,0,0,0,1.21.23,2.14,2.14,0,0,0,1.21-.34,3,3,0,0,0,.89-.8,2.11,2.11,0,0,0,.44-1.15,5.84,5.84,0,0,0,.22-1.37Z" transform="translate(0 -8.13)" style="fill:#0067b0"/></svg>