<svg id="Layer_1" data-name="Layer 1" xmlns="http://www.w3.org/2000/svg" viewBox="0 0 250 56"><defs><style>.cls-1{fill:#fff;}.cls-2{fill:#fd003a;}.cls-3{fill:#e50027;}.cls-4{font-size:29px;fill:#ea5c4d;font-family:Poppins-Regular, Poppins;}</style></defs><title>Artboard 112</title><rect class="cls-1" width="250" height="56" rx="13.98"/><path class="cls-2" d="M29,14A10.62,10.62,0,0,0,18.33,24.55a10.27,10.27,0,0,0,1.6,5.53l8.35,13.5a.84.84,0,0,0,.6.41.9.9,0,0,0,.91-.42l8.37-13.63a10.23,10.23,0,0,0,1.51-5.39A10.62,10.62,0,0,0,29,14Zm0,15.82a5.28,5.28,0,1,1,5.34-5.27A5.3,5.3,0,0,1,29,29.82Z"/><path class="cls-3" d="M29,14v5.27a5.28,5.28,0,1,1,0,10.55V44a.89.89,0,0,0,.79-.43l8.37-13.63a10.23,10.23,0,0,0,1.51-5.39A10.62,10.62,0,0,0,29,14Z"/><text class="cls-4" transform="translate(50 38.46) scale(0.92 1)">LOCALIZAÇÃO</text></svg>