<svg id="Layer_1" data-name="Layer 1" xmlns="http://www.w3.org/2000/svg" viewBox="0 0 80.55 80.55"><defs><style>.cls-1{fill:#ffe04d;}.cls-2{fill:#fbd64d;}.cls-3{fill:#373737;}</style></defs><title>Artboard 118</title><circle class="cls-1" cx="40.28" cy="44.59" r="35.96"/><path class="cls-2" d="M58.84,13.79A36,36,0,0,1,16,71.08,36,36,0,1,0,58.84,13.79Z"/><path class="cls-3" d="M40.28,69.76A20.15,20.15,0,0,1,20.14,49.63H23a17.26,17.26,0,1,0,34.52,0h2.87A20.15,20.15,0,0,1,40.28,69.76Z"/><path class="cls-3" d="M63.29,40.28H60.41a4.32,4.32,0,1,0-8.63,0H48.91a7.19,7.19,0,1,1,14.38,0Z"/><path class="cls-3" d="M31.65,40.28H28.77a4.32,4.32,0,1,0-8.63,0H17.26a7.2,7.2,0,1,1,14.39,0Z"/><path class="cls-3" d="M71.92,61.85h0a8.63,8.63,0,0,0,8.63-8.63V36a8.63,8.63,0,0,0-8.63-8.63h0Z"/><path class="cls-3" d="M8.63,61.85h0A8.63,8.63,0,0,1,0,53.22V36a8.63,8.63,0,0,1,8.63-8.63h0Z"/><path class="cls-3" d="M80.55,40.28H77.68a37.4,37.4,0,0,0-74.8,0H0a40.28,40.28,0,1,1,80.55,0Z"/></svg>