<svg id="Layer_1" data-name="Layer 1" xmlns="http://www.w3.org/2000/svg" viewBox="0 0 110.12 65.05"><defs><style>.cls-1{fill:#00c1ff;}.cls-2{fill:#fff;}</style></defs><title>Artboard 125</title><path class="cls-1" d="M107.32,14.18C103,6.41,93.9,5.86,86.06,5.08,63,2.78,39.31-1.32,16.1.42,11.74.72,7,1.66,4,5.12S.1,13.75,0,18.29A33.12,33.12,0,0,0,11.18,43.76,34.58,34.58,0,0,0,33,51.83c7.64.15,16-4.06,23.34-.36,5,2.55,7.44,8.2,9.6,13.1.44,1,1.52.3,1.74-.74,1.3-6.1,3.21-8.8,7.6-10S84.45,53,89,52a27,27,0,0,0,18.3-14.15C110.83,30.63,111.3,21.34,107.32,14.18Z"/><path class="cls-2" d="M21.48,29.71a5.45,5.45,0,0,0,.19,1.7,1.13,1.13,0,0,0,.66.72,4.75,4.75,0,0,0,1.52.22V33c-1.82-.09-3.17-.13-4.05-.14-.43,0-1.59,0-3.5.1v-.58a2.87,2.87,0,0,0,1.07-.24,1,1,0,0,0,.46-.68A6.73,6.73,0,0,0,18,29.86V15.42a6.73,6.73,0,0,0-.13-1.59,1,1,0,0,0-.46-.69,2.52,2.52,0,0,0-1.07-.24v-.58c.75.06,1.87.1,3.37.14l2,0,1.51,0a7.37,7.37,0,0,1,3.39.86,5,5,0,0,1,2.06,2.09,6.39,6.39,0,0,1,.69,3,7.58,7.58,0,0,1-.62,3,5.13,5.13,0,0,1-2.09,2.35,7.07,7.07,0,0,1-3.92.85l-1.17,0Zm3.44-7a9.71,9.71,0,0,0,.68-4A10.17,10.17,0,0,0,25,14.46a2.27,2.27,0,0,0-2.1-1.41,1.56,1.56,0,0,0-.89.18,1,1,0,0,0-.38.71,8.34,8.34,0,0,0-.11,1.56v8.58l.95,0A2.43,2.43,0,0,0,24.92,22.66Z"/><path class="cls-2" d="M44.91,33a1.26,1.26,0,0,0,.74.5v.57c-.89-.12-2-.22-3.36-.31-1.52-.1-2.64-.14-3.37-.13V33a2.56,2.56,0,0,0,1.2-.19.78.78,0,0,0,.36-.76,5.6,5.6,0,0,0-.27-1.36c-.53-1.9-.8-2.85-1.33-4.76-1.93-.13-2.89-.19-4.82-.3l-.59,1.94a11.62,11.62,0,0,0-.6,3.16,2,2,0,0,0,.48,1.51,2.54,2.54,0,0,0,1.47.53v.58c-1-.11-1.91-.18-2.74-.22a15.37,15.37,0,0,0-1.69,0v-.57c.74-.13,1.37-1.11,1.9-2.93q2.52-8.22,5.05-16.42c.24,0,.5.08.77.1a7,7,0,0,0,.77,0l5.37,18.19A4.43,4.43,0,0,0,44.91,33ZM36.52,17.53l-2.29,7.58c1.8.1,2.69.16,4.49.28Z"/><path class="cls-2" d="M61.73,35.24a3.2,3.2,0,0,1-1.65.26,3.09,3.09,0,0,1-2-.83,4.09,4.09,0,0,1-1-2.42l-.4-2.82c-.13-.92-.27-1.65-.41-2.22a3.72,3.72,0,0,0-.6-1.36,1.42,1.42,0,0,0-1-.58l-1.43-.12v6.47a7.27,7.27,0,0,0,.11,1.54,1,1,0,0,0,.46.69,2.71,2.71,0,0,0,1.08.3v.57c-.79-.12-1.9-.23-3.34-.34s-2.74-.17-3.49-.17v-.56a2.47,2.47,0,0,0,1.07-.15.9.9,0,0,0,.46-.62,7,7,0,0,0,.12-1.54v-14a7.28,7.28,0,0,0-.12-1.56,1.16,1.16,0,0,0-.46-.7A3.1,3.1,0,0,0,48,14.78v-.56q1.13.18,3.36.39c.59.06,1.25.11,2,.16l1.5.11a7.85,7.85,0,0,1,4.6,1.7A4.8,4.8,0,0,1,61,20.31a5.71,5.71,0,0,1-.46,2.31A4.13,4.13,0,0,1,59,24.43a6,6,0,0,1-2.94.85h0a7.33,7.33,0,0,1,2.2.76,3.69,3.69,0,0,1,1.34,1.29,5.36,5.36,0,0,1,.69,2l.5,2.91a6.59,6.59,0,0,0,.42,1.6.78.78,0,0,0,.66.48.72.72,0,0,0,.45-.13,2.25,2.25,0,0,0,.43-.44l.3.36A3.57,3.57,0,0,1,61.73,35.24Zm-5.64-11a2.81,2.81,0,0,0,1-1.53,9.22,9.22,0,0,0,.26-2.4,7.78,7.78,0,0,0-.64-3.53,2.47,2.47,0,0,0-2.1-1.38,1.41,1.41,0,0,0-.88.12.94.94,0,0,0-.39.66,8,8,0,0,0-.1,1.51v6.91l.95.08A2.67,2.67,0,0,0,56.09,24.23Z"/><path class="cls-2" d="M65.44,20.56c0-1.26,0-2.84-.16-4.73,1.35.18,3.63.41,6.85.67s5.49.39,6.82.42c-.11,1.85-.16,3.39-.16,4.64,0,.78,0,1.48.08,2.09l-.51,0a19.36,19.36,0,0,0-.9-3.68,5,5,0,0,0-1.27-2,3,3,0,0,0-1.8-.71l-.51,0V32.9a5.35,5.35,0,0,0,.19,1.68,1.22,1.22,0,0,0,.67.75,4.64,4.64,0,0,0,1.51.28v.55C74.39,36,73,35.9,72,35.84s-2.28-.11-4.05-.17v-.56a4.63,4.63,0,0,0,1.52-.1,1,1,0,0,0,.66-.67,5.49,5.49,0,0,0,.18-1.66V16.91l-.48,0a2.68,2.68,0,0,0-1.81.42,3.93,3.93,0,0,0-1.27,1.82,16.91,16.91,0,0,0-.91,3.6l-.51,0C65.42,22.06,65.44,21.36,65.44,20.56Z"/><path class="cls-2" d="M93.73,17.62a13.86,13.86,0,0,0,1.69-.06v.54a3,3,0,0,0-1,1,11,11,0,0,0-1.11,2.11l-2.62,6.27v6.31a5.85,5.85,0,0,0,.13,1.48.93.93,0,0,0,.46.64,2.79,2.79,0,0,0,1.08.21v.54c-.8,0-1.94-.08-3.41-.11s-2.72,0-3.44,0V36a2.78,2.78,0,0,0,1.08-.18.92.92,0,0,0,.46-.63,5.8,5.8,0,0,0,.13-1.48V29.12Q85,24.18,82.88,19.24c-.46-1-.88-1.58-1.28-1.61v-.57a19.06,19.06,0,0,0,2.61.28c1.38.07,2.77.09,4.16.05V18a3.59,3.59,0,0,0-1.23.12.58.58,0,0,0-.45.61,1.51,1.51,0,0,0,.15.61c1.35,3.24,2,4.85,3.38,8l1.72-4.17a9.49,9.49,0,0,0,.87-3.32,1.76,1.76,0,0,0-.47-1.34A2.22,2.22,0,0,0,91,18v-.54C92,17.56,92.88,17.6,93.73,17.62Z"/></svg>