<svg id="Layer_1" data-name="Layer 1" xmlns="http://www.w3.org/2000/svg" viewBox="0 0 103.03 84.75"><defs><style>.cls-1{fill:#cc4fc4;}.cls-2{fill:#f0f0f1;}</style></defs><title>Artboard 126</title><path class="cls-1" d="M47.07,62c-2.17,2.81-3.9,22.73-3.9,22.73S29.89,61.05,27.51,59.62c-2.58-1.54-6.33-.83-9.17-1.17a18.61,18.61,0,0,1-7.72-3.31C5.4,51.69,2.2,46,.86,40c-1.55-7-.77-14.26.49-21.26C2.27,13.61,3.33,8,7.2,4.11,12-.7,17.1,0,23.43.11Q50,.66,76.62,1.6c6.24.23,12.91.6,17.95,4.31,5.67,4.18,7.89,11.65,8.34,18.68.57,8.81-.77,20.37-5.84,27.91-4,6-14.62,5.85-21.09,6.15-8.13.37-17.07-.25-25.08,1.18A5.86,5.86,0,0,0,47.07,62Z"/><path class="cls-2" d="M46.23,22.22a6.21,6.21,0,0,0-4.18-4.31c-2.91-.93-6.54.92-7.78,3.83a21.49,21.49,0,0,0-1.49,7.08,35.15,35.15,0,0,0,.12,5.8,18.54,18.54,0,0,0,1.69,6.51c1,2,2.45,3.36,4.87,3.28a5.92,5.92,0,0,0,2.34-.76,7.4,7.4,0,0,0,3.53-3.41,18,18,0,0,0,2-8.86A25.35,25.35,0,0,0,46.23,22.22ZM41.42,38.64c-.14.4-.3,1-.7.93s-.34-.62-.4-1c-.39-2.36-.65-4.74-.85-7.13-.15-1.74.15-3.48-.19-5.16.15-1.15.26-2.25.44-3.33a1.32,1.32,0,0,1,1.14-1.11c.59-.12.91.21,1.27.66a6.16,6.16,0,0,1,1.16,3.8A31.57,31.57,0,0,1,41.42,38.64Z"/><path class="cls-2" d="M87.61,41.88a26.85,26.85,0,0,0-5-.41c-.63,0-.78-.25-.68-.79a13.19,13.19,0,0,0,.2-2.26c0-1.53.07-3.05.11-4.58,0-.27-.09-.6.38-.64,1.61-.14,3.21-.34,4.82-.46a1.73,1.73,0,0,0,1.8-1.58,1.83,1.83,0,0,0-1.6-1.81,24.34,24.34,0,0,0-2.56-.23c-.89,0-1.77,0-2.66-.06-.35,0-.6-.07-.64-.52a46.67,46.67,0,0,0-1-6.07c-.2-.86-.11-.95.8-.95a40.58,40.58,0,0,0,4.27,0,2.36,2.36,0,0,0,2.25-2.19,2,2,0,0,0-2-2.17c-.89,0-1.81,0-2.71,0a58.47,58.47,0,0,0-5.89.73c-.73.11-1.56,0-2,.89a3.36,3.36,0,0,0-.33,1.42c-.06,2.31-.12,4.62-.18,7.43a93.64,93.64,0,0,0,0,10.84c.14,1.73.35,3.45.57,5.17a2.32,2.32,0,0,0,2,2,23,23,0,0,0,6.88.27A12.46,12.46,0,0,0,88,45.29a1.86,1.86,0,0,0,1.45-1.48C89.59,42.71,88.49,42,87.61,41.88Z"/><path class="cls-2" d="M68.89,18a1.57,1.57,0,0,0-1.68-.65,1.82,1.82,0,0,0-1.34,1.43c-.83,2.79-1.68,5.57-2.49,8.37s-1.68,5.88-2.55,9a2.76,2.76,0,0,1-.16-.32c-.5-4-1-8.06-1.53-12.08a17.13,17.13,0,0,0-1.68-5.46,2.06,2.06,0,0,0-3.94.83,23.93,23.93,0,0,0,.29,4.47q.52,4.07,1.34,8.1c.62,3,1,6.09,1.85,9.06a6.79,6.79,0,0,0,1.72,3,2.68,2.68,0,0,0,4.19-.31,8.08,8.08,0,0,0,.68-1.22,66.72,66.72,0,0,0,3-8.91c.78-2.72,1.28-5.52,1.83-8.3A26.55,26.55,0,0,0,69.19,19,1.63,1.63,0,0,0,68.89,18Z"/><path class="cls-2" d="M26.11,38.47c-1.28-.08-2.55.05-3.83,0-1.56,0-1.56,0-1.51-1.62,0-.2,0-.39,0-.8a19.69,19.69,0,0,0-.12-3.46c-.15-2.76-.44-5.51-.63-8.26-.12-1.81-.11-3.62-.31-5.42a2.44,2.44,0,0,0-2.8-2.41,2.58,2.58,0,0,0-2.58,2,15.58,15.58,0,0,0-.6,4.06,64.81,64.81,0,0,0,.15,8.81c.25,3.17.27,6.36.23,9.55,0,2.18,1.22,2.8,3,2.56a8.81,8.81,0,0,1,2.34-.15,39.65,39.65,0,0,0,5.55.24,6.21,6.21,0,0,0,2.64-.6,1.74,1.74,0,0,0,1-1.17A2.87,2.87,0,0,0,26.11,38.47Z"/></svg>