<svg id="Layer_1" data-name="Layer 1" xmlns="http://www.w3.org/2000/svg" viewBox="0 0 106.68 72.43"><defs><style>.cls-1{fill:#ffa000;}.cls-2{fill:#fff;}</style></defs><title>Artboard 122</title><path class="cls-1" d="M104,15.82a21.72,21.72,0,0,0-1.43-2.4C95.2,2.65,80.5,2,68.46.78A165.12,165.12,0,0,0,26.21,2.1C14.59,4-.22,9.26,0,23.44.35,46,14,53.81,39.66,55.69l-3.3,16.74L59.74,56.15H60c8.35-.12,16.79-.93,24.68-3.67C99.76,47.22,112.39,32.12,104,15.82Z"/><path class="cls-2" d="M25.12,35.32c-.26,1.71-.11,3.33-1.76,4.41a3.85,3.85,0,0,1-4.61-.36c-2.59-2.17-3.5-6.44-3.82-9.62a24.11,24.11,0,0,1,1.44-11.19c1.21-3.08,4.05-6,7.48-4a.82.82,0,0,0,1-1.29c-2.13-2.67-6.35-1.45-8.35.7C14,16.63,13,20.7,12.54,24.28a25.66,25.66,0,0,0,1.52,12.27c1.2,3.05,3.42,6.13,7,6.3a6.25,6.25,0,0,0,5.14-2.36c1.14-1.45,1.85-3.72.91-5.43C26.69,34.3,25.26,34.37,25.12,35.32Z"/><path class="cls-2" d="M38.69,13.81c-.2,3.37-.5,6.75-.67,10.12-1.15,0-2.3,0-3.45,0a15.64,15.64,0,0,0-3,.09c0-1.24-.07-2.48-.11-3.72a35.71,35.71,0,0,0-.54-7,.74.74,0,0,0-1.42,0,35.69,35.69,0,0,0-.3,7c0,2.43,0,4.87,0,7.3s.07,4.86.1,7.29A58.38,58.38,0,0,0,29.59,42c.2,1.42,2.2.9,2.32-.31a59.27,59.27,0,0,0-.05-7.3c0-2.35-.08-4.7-.14-7.06l0-.92a17.89,17.89,0,0,0,2.88.15c1.21,0,2.43.05,3.65.07-.15,5-.25,10.05-.19,15.06a1.13,1.13,0,1,0,2.25,0c.48-9.27.44-18.6.47-27.88A1,1,0,1,0,38.69,13.81Z"/><path class="cls-2" d="M52.6,40.48l-6.76-.21L46,26.14a21.74,21.74,0,0,0,2.4.19c1.4.08,2.82.24,4.21.2a1.19,1.19,0,0,0,0-2.37C51.29,24,50,24,48.63,24A22.76,22.76,0,0,0,46,23.9c0-3,.05-5.93.06-8.9a53.76,53.76,0,0,0,6.09-.5c1.24-.19.88-2-.28-2a64.59,64.59,0,0,0-7,.37A1.16,1.16,0,0,0,43.78,14c-.16,9.14-.24,18.28-.34,27.43a1.2,1.2,0,0,0,1.2,1.15c2.65.09,5.31.21,8,.32A1.19,1.19,0,1,0,52.6,40.48Z"/><path class="cls-2" d="M92.06,40.48l-6.76-.21.15-14.13a21.74,21.74,0,0,0,2.4.19c1.4.08,2.81.24,4.21.2a1.19,1.19,0,0,0,0-2.37c-1.31-.17-2.66-.15-4-.2a22.76,22.76,0,0,0-2.62-.06c0-3,0-5.93.06-8.9a54,54,0,0,0,6.09-.5c1.23-.19.88-2-.28-2a64.45,64.45,0,0,0-7,.37A1.16,1.16,0,0,0,83.24,14c-.16,9.14-.24,18.28-.34,27.43a1.2,1.2,0,0,0,1.19,1.15c2.66.09,5.31.21,8,.32A1.19,1.19,0,1,0,92.06,40.48Z"/><path class="cls-2" d="M65.73,24.87c-1.4,0-2.8,0-4.2,0-.55,0-1.12,0-1.66,0,.08-3.7.17-7.41.27-11.11.87,0,1.74-.1,2.62-.18a6.74,6.74,0,0,0,3.17-.76.62.62,0,0,0,0-1.07,6.56,6.56,0,0,0-3.17-.44c-1.27,0-2.54.1-3.8.18a1.22,1.22,0,0,0-1.21,1.16c-.17,9.68-.46,19.36-.67,29a1.2,1.2,0,0,0,1.21,1.16c2.15-.07,4.31-.12,6.47-.18a1.18,1.18,0,1,0,0-2.36c-1.75.06-3.49.13-5.24.18.11-4.44.2-8.88.3-13.32.56.07,1.16,0,1.71.07,1.4.06,2.8.11,4.2.13A1.25,1.25,0,0,0,65.73,24.87Z"/><path class="cls-2" d="M73.27,20.42a6.32,6.32,0,0,1-.47-5.21,2.87,2.87,0,0,1,4.32-1.44c.56.39,1.12-.34.87-.83a3.43,3.43,0,0,0-3.7-1.61,5.14,5.14,0,0,0-3.64,3.16c-1.53,3.6.48,7.36,2.66,10.25,2.56,3.4,5.15,6.91,4.61,11.37a4.71,4.71,0,0,1-3.33,4.3,2.33,2.33,0,0,1-2.94-2.71c.18-1-1.27-1.8-1.87-.76-1.3,2.28.65,5.17,3.08,5.76,3,.75,5.87-1.38,6.94-4,1.28-3.13.56-6.88-.84-9.85S74.75,23.48,73.27,20.42Z"/></svg>