<svg id="Layer_1" data-name="Layer 1" xmlns="http://www.w3.org/2000/svg" viewBox="0 0 75.08 75.08"><defs><style>.cls-1{fill:#ffe04d;}.cls-2{fill:#fbd64d;}.cls-3{fill:#373737;}.cls-4{fill:#5f5f5f;}</style></defs><title>Artboard 117</title><circle class="cls-1" cx="37.54" cy="37.54" r="37.54"/><path class="cls-2" d="M61.27,8.45A37.54,37.54,0,0,1,8.45,61.27,37.54,37.54,0,1,0,61.27,8.45Z"/><circle class="cls-3" cx="54.97" cy="32.18" r="5.36"/><circle class="cls-3" cx="20.11" cy="32.18" r="5.36"/><path class="cls-3" d="M46.93,63H33.52V60.33H44.06l-4.87-5.84a1.36,1.36,0,0,1,0-1.72l4.87-5.84H33.52V44.25H46.93a1.34,1.34,0,0,1,1,2.19l-6,7.19,6,7.19a1.35,1.35,0,0,1-1,2.2Z"/><circle class="cls-4" cx="57.65" cy="68.38" r="5.36"/><path class="cls-4" d="M60.33,44.37v7.92c6.71,0,13.41,5.36,13.41,5.36C73.74,44.25,60.33,44.37,60.33,44.37Z"/><rect class="cls-4" x="60.33" y="45.59" width="2.68" height="22.79"/></svg>