<svg id="Layer_1" data-name="Layer 1" xmlns="http://www.w3.org/2000/svg" viewBox="0 0 74.14 74.14"><defs><style>.cls-1{fill:#ffe04d;}.cls-2{fill:#fbd64d;}.cls-3{fill:#373737;}</style></defs><title>Artboard 120</title><circle class="cls-1" cx="37.07" cy="37.07" r="37.07"/><path class="cls-2" d="M60.5,8.35A37.07,37.07,0,0,1,8.35,60.5,37.07,37.07,0,1,0,60.5,8.35Z"/><circle class="cls-3" cx="54.28" cy="31.77" r="5.3"/><circle class="cls-3" cx="19.86" cy="31.77" r="5.3"/><path class="cls-3" d="M42.37,54.28a6.61,6.61,0,0,1-5.3-2.65,6.62,6.62,0,0,1-11.92-4H27.8a4,4,0,0,0,8,0,1.32,1.32,0,0,1,2.64,0,4,4,0,0,0,8,0H49A6.63,6.63,0,0,1,42.37,54.28Z"/></svg>