<svg id="Layer_1" data-name="Layer 1" xmlns="http://www.w3.org/2000/svg" viewBox="0 0 90.98 69.92"><defs><style>.cls-1{fill:#00c1ff;}.cls-2{fill:#fff;}</style></defs><title>Artboard 123</title><path class="cls-1" d="M1.84.09A1.36,1.36,0,0,0,0,1.36v67.2a1.36,1.36,0,0,0,1.84,1.27L90.1,36.24a1.37,1.37,0,0,0,0-2.56Z"/><path class="cls-2" d="M11.62,33.91q-.12-5.89-.4-11.77c-.18-3.86-.08-8-1-11.75-.3-1.24-2.13-.85-2.23.28-.34,3.86.28,7.9.47,11.76s.32,7.85.41,11.77c.16,7.85.18,15.71-.05,23.56-.05,1.53,2.47,1.52,2.52,0C11.65,49.81,11.78,41.87,11.62,33.91Z"/><path class="cls-2" d="M23.62,32.63A10.71,10.71,0,0,0,17,30c3.85-2.89,6.35-7.12,5.5-12a9.32,9.32,0,0,0-5.42-7,8.31,8.31,0,0,0-8.4.53c-.71.53.06,1.64.87,1.4,4.94-1.48,10,1.3,10.28,6.33.32,5.2-3.93,9.13-8.74,11-1.36.52-1.4,2.85.39,2.68,3.36-.33,7.51-.77,10.13,1.69s3.18,6.57,2.78,9.83c-.83,6.91-6.83,12.35-14.16,13.14-1.68.18-1.74,2.65,0,2.51,8.94-.71,16.17-7.24,17.08-15.65C27.73,40.38,26.76,35.57,23.62,32.63Z"/><path class="cls-2" d="M42.77,33.28c-.13-3.11-.21-6.44-1.34-9.33-2.11-5.41-8.17-6.7-11.08-1.37-1.5,2.73-1.54,6.29-1.51,9.4A53.59,53.59,0,0,0,30,42.34c.58,2.84,1.36,6.26,3.69,7.93a4.36,4.36,0,0,0,3.94.65,4.16,4.16,0,0,0,1.18-.38c2.35-1.16,3.45-3.94,3.78-6.65A64.8,64.8,0,0,0,42.77,33.28Zm-3.25,11c-.32,1.54-1.34,3.41-2.89,3.48s-2.49-1.46-3-2.85A38,38,0,0,1,32,37.09a44.57,44.57,0,0,1-.24-8.41c.15-2.33.8-6.05,3.36-6.44,5-.76,4.67,9.85,4.74,13.1A41.53,41.53,0,0,1,39.52,44.26Z"/><path class="cls-2" d="M56.92,29.71A6.81,6.81,0,0,0,54.3,25c-1.61-1.07-4.17-1.68-5.91-.71a6.42,6.42,0,0,0-2.9,4.9c-.32,2.48.16,5.07.4,7.54.21,2.21.31,4.55,1.32,6.57C49,46.8,53.7,48,56,44.38c1.32-2.1,1.13-4.73,1.12-7.11A54.47,54.47,0,0,0,56.92,29.71ZM51.6,43.6c-3.16-.92-2.79-6.65-3-9.24a20.89,20.89,0,0,1-.21-3.95,3.88,3.88,0,0,1,1.26-2.64,2.78,2.78,0,0,1,4.12,1.16c.77,1.55.5,3.57.5,5.24C54.23,36,55.21,44.66,51.6,43.6Z"/><path class="cls-2" d="M63.24,39a1.81,1.81,0,0,0-.61.14l-.26.1a1.59,1.59,0,0,0-.9,1.05,1.74,1.74,0,0,0,1.74,2.07,1.71,1.71,0,0,0,1.84-1.68A1.75,1.75,0,0,0,63.24,39Z"/><path class="cls-2" d="M65.2,27.53a38.16,38.16,0,0,0-4.49-.84c-1.43-.13-.05,3.69.1,4.22.47,1.74.95,3.47,1.42,5.21.15.55.19,1.54.75,1.85a.8.8,0,0,0,1.17-.47c.59-3,1.16-5.94,1.66-8.92A.86.86,0,0,0,65.2,27.53Z"/></svg>