<svg id="Layer_1" data-name="Layer 1" xmlns="http://www.w3.org/2000/svg" viewBox="0 0 77.08 80.57"><defs><style>.cls-1{fill:#ff1064;}.cls-2{fill:#fff;}</style></defs><title>Artboard 124</title><path class="cls-1" d="M76.85.44a.34.34,0,0,0-.56-.35c-4.68,4-12,9.18-13.61,9.79-2.25.85-3.39-.38-5.25-1.41C38.36-2.13,12.69,5.85,3.47,25.8-6.31,46.94,5.46,72.56,27.72,79a38.66,38.66,0,0,0,10.8,1.53C60,80.57,78.12,60.82,77,39.4a35.76,35.76,0,0,0-.65-5.14,38,38,0,0,0-2.14-6.66c-1.73-3.9-2.78-7-1.73-11.37C73.78,10.93,75.4,5.7,76.85.44Z"/><path class="cls-2" d="M32.74,11.69c-6.05-.48-12.81,2.92-17.32,6.67C11.07,22,6.74,27.77,6.29,33.6a.6.6,0,0,0,1.11.3,78.82,78.82,0,0,1,3.65-7.37,28.36,28.36,0,0,1,5.66-6.46,27.22,27.22,0,0,1,8-4.59A57.06,57.06,0,0,1,33,13.61C34.14,13.37,33.77,11.77,32.74,11.69Z"/><path class="cls-2" d="M64.78,57.07A26.65,26.65,0,0,1,53.72,68.9,25.89,25.89,0,0,1,45,71.79c-3.17.47-6.22,0-9.39,0-.57,0-.88.88-.31,1.14,5.84,2.63,13.65.94,19.11-1.86a27.81,27.81,0,0,0,12.4-12.89C67.38,56.91,65.42,55.74,64.78,57.07Z"/><path class="cls-2" d="M15.88,53.32a7,7,0,0,1-5.29-1.42A7.42,7.42,0,0,1,9.41,41.68a7,7,0,0,1,4.82-2.61,7,7,0,0,1,5.29,1.43,7.46,7.46,0,0,1,1.19,10.22A7,7,0,0,1,15.88,53.32Zm2.63-4.17a4.68,4.68,0,0,0,.78-3.46,4.62,4.62,0,0,0-1.56-3.17,4.1,4.1,0,0,0-3.21-.88,4.1,4.1,0,0,0-2.93,1.61,5.24,5.24,0,0,0,.77,6.61,4.07,4.07,0,0,0,3.22.89A4.09,4.09,0,0,0,18.51,49.15Z"/><path class="cls-2" d="M31.54,51.49a7,7,0,0,1-5.29-1.42,7.43,7.43,0,0,1-1.19-10.22,7,7,0,0,1,4.83-2.6,7,7,0,0,1,7.93,6.29,6.9,6.9,0,0,1-1.45,5.35A7,7,0,0,1,31.54,51.49Zm2.62-4.17A4.66,4.66,0,0,0,35,43.86a4.64,4.64,0,0,0-1.56-3.17,4.06,4.06,0,0,0-3.21-.87,4.06,4.06,0,0,0-2.93,1.6,4.6,4.6,0,0,0-.8,3.45A4.63,4.63,0,0,0,28,48a4.1,4.1,0,0,0,3.22.88A4,4,0,0,0,34.16,47.32Z"/><path class="cls-2" d="M49.12,42.23a3.7,3.7,0,0,1-1.44,1.23,6.9,6.9,0,0,1-2.36.67L43,44.4l.65,5.54-2.81.33L39.23,36.36l5.12-.6a5.3,5.3,0,0,1,3.85.77,3.79,3.79,0,0,1,1.64,2.69A4.35,4.35,0,0,1,49.12,42.23Zm-6.36,0L45.07,42a2.2,2.2,0,0,0,1.55-.74A2,2,0,0,0,47,39.69a2.07,2.07,0,0,0-.73-1.42,2.26,2.26,0,0,0-1.68-.36l-2.31.27Z"/><path class="cls-2" d="M56.22,36.46a2.1,2.1,0,0,0-1.31.58,1.46,1.46,0,0,0-.39,1.25A1.7,1.7,0,0,0,55,39.43a2.46,2.46,0,0,0,1.11.54c.44.1.92.18,1.44.25a14.1,14.1,0,0,1,1.56.26,7.23,7.23,0,0,1,1.47.47,2.81,2.81,0,0,1,1.16,1,3.77,3.77,0,0,1,.59,1.72,3.85,3.85,0,0,1-1,3.1,5.19,5.19,0,0,1-3.48,1.66,5.88,5.88,0,0,1-3.78-.64A3.62,3.62,0,0,1,52.34,45l3-.35a1.85,1.85,0,0,0,2.31,1.59,2.19,2.19,0,0,0,1.45-.68,1.69,1.69,0,0,0,.41-1.39,1.5,1.5,0,0,0-.89-1.22,5.63,5.63,0,0,0-1.87-.51,21.12,21.12,0,0,1-2.17-.33,4,4,0,0,1-1.93-1,3.33,3.33,0,0,1-1-2.16,3.79,3.79,0,0,1,1-3.19,5.41,5.41,0,0,1,3.4-1.55,5.77,5.77,0,0,1,3.59.58,3.84,3.84,0,0,1,1.78,2.84L58.38,38a1.85,1.85,0,0,0-2.16-1.5Z"/><path class="cls-2" d="M66.64,42.51,65.12,32.27l3-.35L69,42.24Zm3.21,2.76a1.6,1.6,0,0,1-1.42,1.78,1.59,1.59,0,0,1-1.19-.33,1.56,1.56,0,0,1-.6-1.08,1.6,1.6,0,0,1,1.42-1.78,1.58,1.58,0,0,1,1.19.33A1.52,1.52,0,0,1,69.85,45.27Z"/></svg>