<svg id="Layer_1" data-name="Layer 1" xmlns="http://www.w3.org/2000/svg" viewBox="0 0 75.08 75.08"><defs><style>.cls-1{fill:#ffe04d;}.cls-2{fill:#fbd64d;}.cls-3{fill:#373737;}.cls-4{fill:#ff5538;}</style></defs><title>Artboard 115</title><circle class="cls-1" cx="37.54" cy="37.54" r="37.54"/><path class="cls-2" d="M61.27,8.45A37.54,37.54,0,0,1,8.45,61.27,37.54,37.54,0,1,0,61.27,8.45Z"/><path class="cls-3" d="M37.54,68.38c-3.69,0-6.7-2.41-6.7-5.36s3-5.37,6.7-5.37v2.68c-2.18,0-4,1.23-4,2.69s1.84,2.68,4,2.68Z"/><path class="cls-3" d="M37.54,60.33c-3.69,0-6.7-2.4-6.7-5.36s3-5.36,6.7-5.36v2.68c-2.18,0-4,1.23-4,2.68s1.84,2.68,4,2.68Z"/><path class="cls-4" d="M12.37,32.34l9.08,9.22,9.09-9.22a5.6,5.6,0,0,0-7.93-7.91l-1.16,1.16-1.16-1.16a5.6,5.6,0,1,0-7.92,7.91Z"/><path class="cls-4" d="M62.72,32.34l-9.09,9.22-9.08-9.22a5.6,5.6,0,1,1,7.92-7.91l1.16,1.16,1.16-1.16a5.6,5.6,0,0,1,7.93,7.91Z"/></svg>