<svg id="Layer_1" data-name="Layer 1" xmlns="http://www.w3.org/2000/svg" viewBox="0 0 83.81 77.09"><defs><style>.cls-1{fill:#ff1064;}.cls-2{fill:#fff;}</style></defs><title>Artboard 121</title><path class="cls-1" d="M39,.47C20.74,3.39,6.2,20.05,6.71,38.67c.15,5.46,2,10.58,4.14,15.52.93,2.11,2.64,4.43,2.36,6.74-.3,2.47-2.64,4.55-4.34,6.14A13,13,0,0,1,0,70.75c3.64,2.78,8.3,2.41,12.52,2.76,3.33.27,6.6-.79,9.89-1.12,3.94-.4,5.69.69,9,2.34,5.31,2.66,12.62,2.75,18.34,1.82A42.09,42.09,0,0,0,79.46,55.44a35.3,35.3,0,0,0,4.35-16.75C83.81,15.37,62.12-3.22,39,.47Z"/><path class="cls-2" d="M24.05,50.77a8.8,8.8,0,0,1-9.71-8.29,8.69,8.69,0,0,1,2.1-6.66,8.82,8.82,0,0,1,6.2-3.06,8.82,8.82,0,0,1,9.69,8.3,8.8,8.8,0,0,1-8.28,9.71Zm3.5-5.13a5.88,5.88,0,0,0,1.15-4.31,5.81,5.81,0,0,0-1.82-4.06,5.16,5.16,0,0,0-4-1.26,5.17,5.17,0,0,0-3.77,1.89A5.84,5.84,0,0,0,18,42.2a5.76,5.76,0,0,0,1.83,4.06,5.16,5.16,0,0,0,4,1.27A5.13,5.13,0,0,0,27.55,45.64Z"/><path class="cls-2" d="M53.6,30.57,55,48.15l-3.53.28-.88-11.11L46.68,48.8,44.13,49,38.5,38.33l.87,11.05-3.55.28L34.43,32.08l4-.31,6.68,12.58,4.61-13.47Z"/><path class="cls-2" d="M60.19,45.33a8.67,8.67,0,0,1-3.1-6.25,8.64,8.64,0,0,1,2.09-6.65,8.86,8.86,0,0,1,6.19-3.05,9.09,9.09,0,0,1,5.21,1.06,8,8,0,0,1,3.51,3.85l-4.25.34a4.18,4.18,0,0,0-4.22-2,5.14,5.14,0,0,0-3.76,1.88,5.8,5.8,0,0,0-1.17,4.3,5.84,5.84,0,0,0,1.83,4.06,4.92,4.92,0,0,0,3.8,1.29,5.12,5.12,0,0,0,3.34-1.35,4.6,4.6,0,0,0,1.32-3l-5.84.46-.22-2.69,9.65-.77.22,2.7a8.94,8.94,0,0,1-14.6,5.82Z"/></svg>