<svg id="Layer_1" data-name="Layer 1" xmlns="http://www.w3.org/2000/svg" viewBox="0 0 75.08 75.08"><defs><style>.cls-1{fill:#ffe04d;}.cls-2{fill:#fbd64d;}.cls-3{fill:#373737;}.cls-4{fill:#6369d3;}</style></defs><title>Artboard 119</title><circle class="cls-1" cx="37.54" cy="37.54" r="37.54"/><path class="cls-2" d="M61.27,8.45A37.54,37.54,0,0,1,8.45,61.27,37.54,37.54,0,1,0,61.27,8.45Z"/><path class="cls-3" d="M36.84,67a12.07,12.07,0,0,1-10.47-6l2.32-1.34A9.39,9.39,0,0,0,45,50.28l2.32-1.34A12.05,12.05,0,0,1,36.84,67Z"/><polygon class="cls-4" points="20.11 24.13 23.43 31.2 30.84 32.33 25.48 37.82 26.74 45.59 20.11 41.92 13.48 45.59 14.75 37.82 9.38 32.33 16.8 31.2 20.11 24.13"/><polygon class="cls-4" points="54.97 24.13 58.29 31.2 65.7 32.33 60.33 37.82 61.6 45.59 54.97 41.92 48.34 45.59 49.61 37.82 44.24 32.33 51.66 31.2 54.97 24.13"/></svg>