<svg id="Layer_1" data-name="Layer 1" xmlns="http://www.w3.org/2000/svg" viewBox="0 0 75.08 75.08"><defs><style>.cls-1{fill:#ffe04d;}.cls-2{fill:#fbd64d;}.cls-3{fill:#ff5538;}.cls-4{fill:#373737;}.cls-5{fill:#5ec0c7;}</style></defs><title>Artboard 116</title><circle class="cls-1" cx="37.54" cy="37.54" r="37.54"/><path class="cls-2" d="M61.27,8.45A37.54,37.54,0,0,1,8.45,61.27,37.54,37.54,0,1,0,61.27,8.45Z"/><path class="cls-3" d="M37.54,71.06h0c-5.92,0-10.72-4.5-10.72-10.06V51H48.27V61C48.27,66.56,43.47,71.06,37.54,71.06Z"/><rect class="cls-4" x="21.45" y="49.61" width="32.18" height="2.68"/><rect class="cls-4" x="36.2" y="52.29" width="2.68" height="14.75"/><path class="cls-5" d="M22.27,40.22H14.9a9.54,9.54,0,0,1-9.54-9.54v-.86a8.37,8.37,0,0,1,8.37-8.37h15a6.18,6.18,0,0,1,6.18,6.18h0A12.59,12.59,0,0,1,22.27,40.22Z"/><path class="cls-4" d="M22.27,41.56H14.9A10.89,10.89,0,0,1,4,30.68v-.86a9.73,9.73,0,0,1,9.71-9.71h15a7.52,7.52,0,0,1,7.52,7.52A14,14,0,0,1,22.27,41.56ZM13.73,22.79a7,7,0,0,0-7,7v.86a8.21,8.21,0,0,0,8.2,8.2h7.37A11.27,11.27,0,0,0,33.52,27.63a4.84,4.84,0,0,0-4.84-4.84Z"/><path class="cls-5" d="M52.81,40.22h7.37a9.54,9.54,0,0,0,9.54-9.54v-.86a8.37,8.37,0,0,0-8.37-8.37h-15a6.18,6.18,0,0,0-6.18,6.18h0A12.59,12.59,0,0,0,52.81,40.22Z"/><path class="cls-4" d="M60.18,41.56H52.81A14,14,0,0,1,38.88,27.63a7.53,7.53,0,0,1,7.52-7.52h15a9.73,9.73,0,0,1,9.71,9.71v.86A10.89,10.89,0,0,1,60.18,41.56ZM46.4,22.79a4.84,4.84,0,0,0-4.84,4.84A11.27,11.27,0,0,0,52.81,38.88h7.37a8.21,8.21,0,0,0,8.2-8.2v-.86a7,7,0,0,0-7-7Z"/><rect class="cls-4" x="13.73" y="20.11" width="47.62" height="2.68"/></svg>