<svg id="Layer_1" data-name="Layer 1" xmlns="http://www.w3.org/2000/svg" xmlns:xlink="http://www.w3.org/1999/xlink" viewBox="0 0 124 125"><defs><style>.cls-1{fill:url(#linear-gradient);}.cls-2{fill:#91b3fa;}.cls-14,.cls-3{fill:#fff;}.cls-3{opacity:0.57;}.cls-4{fill:#bdd0fb;}.cls-5{opacity:0.52;fill:url(#linear-gradient-2);}.cls-6{fill:url(#linear-gradient-3);}.cls-7{fill:url(#linear-gradient-4);}.cls-8{fill:url(#linear-gradient-5);}.cls-9{fill:url(#linear-gradient-6);}.cls-10{fill:url(#linear-gradient-7);}.cls-11{fill:#7d97f4;}.cls-12{fill:url(#linear-gradient-8);}.cls-13{fill:url(#linear-gradient-9);}.cls-14{opacity:0.69;}.cls-15{fill:url(#linear-gradient-10);}.cls-16{fill:url(#linear-gradient-11);}.cls-17{fill:url(#linear-gradient-12);}.cls-18{fill:url(#linear-gradient-13);}.cls-19{fill:url(#linear-gradient-14);}.cls-20{fill:url(#linear-gradient-15);}.cls-21{fill:url(#linear-gradient-16);}.cls-22{fill:url(#linear-gradient-17);}.cls-23{fill:url(#linear-gradient-18);}.cls-24{fill:url(#linear-gradient-19);}.cls-25{fill:url(#linear-gradient-20);}.cls-26{fill:url(#linear-gradient-21);}.cls-27{fill:url(#linear-gradient-22);}.cls-28{fill:url(#linear-gradient-23);}.cls-29{fill:url(#linear-gradient-24);}.cls-30{fill:url(#linear-gradient-25);}.cls-31{opacity:0.7;}.cls-32{fill:url(#linear-gradient-26);}.cls-33{fill:url(#linear-gradient-27);}</style><linearGradient id="linear-gradient" x1="138.98" y1="158.65" x2="29.83" y2="23.1" gradientUnits="userSpaceOnUse"><stop offset="0" stop-color="#dae3fe"/><stop offset="1" stop-color="#e9effd"/></linearGradient><linearGradient id="linear-gradient-2" x1="14650.07" y1="86.75" x2="14681.79" y2="86.75" gradientTransform="matrix(-1, 0, 0, 1, 14695.45, 0)" gradientUnits="userSpaceOnUse"><stop offset="0" stop-color="#ce1567"/><stop offset="1" stop-color="#7a1dbc"/></linearGradient><linearGradient id="linear-gradient-3" x1="79.5" y1="47.23" x2="127.92" y2="18.54" gradientUnits="userSpaceOnUse"><stop offset="0" stop-color="#09005d"/><stop offset="1" stop-color="#1a0f91"/></linearGradient><linearGradient id="linear-gradient-4" x1="89.25" y1="122.79" x2="90.37" y2="39.61" xlink:href="#linear-gradient-3"/><linearGradient id="linear-gradient-5" x1="66.69" y1="-12.06" x2="94.2" y2="58.19" gradientUnits="userSpaceOnUse"><stop offset="0" stop-color="#ff928e"/><stop offset="1" stop-color="#fe7062"/></linearGradient><linearGradient id="linear-gradient-6" x1="82.37" y1="21.13" x2="113.49" y2="113.41" xlink:href="#linear-gradient-5"/><linearGradient id="linear-gradient-7" x1="64.02" y1="44.96" x2="62.45" y2="115.13" xlink:href="#linear-gradient-3"/><linearGradient id="linear-gradient-8" x1="64.7" y1="110.72" x2="66.27" y2="77.09" xlink:href="#linear-gradient-3"/><linearGradient id="linear-gradient-9" x1="47.46" y1="86.91" x2="49.25" y2="53.13" gradientUnits="userSpaceOnUse"><stop offset="0" stop-color="#4f52ff"/><stop offset="1" stop-color="#4042e2"/></linearGradient><linearGradient id="linear-gradient-10" x1="27.75" y1="88.78" x2="21.11" y2="107.06" xlink:href="#linear-gradient-5"/><linearGradient id="linear-gradient-11" x1="56.58" y1="81.24" x2="38.42" y2="107.91" xlink:href="#linear-gradient-5"/><linearGradient id="linear-gradient-12" x1="13226.32" y1="71.8" x2="13194.26" y2="107.35" gradientTransform="matrix(-1, 0, 0, 1, 13301.64, 0)" xlink:href="#linear-gradient-3"/><linearGradient id="linear-gradient-13" x1="21063.7" y1="105.13" x2="21049.37" y2="113.3" gradientTransform="matrix(-1, 0, 0, 1, 21133.34, 0)" gradientUnits="userSpaceOnUse"><stop offset="0" stop-color="#febbba"/><stop offset="1" stop-color="#ff928e"/></linearGradient><linearGradient id="linear-gradient-14" x1="-1351.01" y1="-5098.04" x2="-1352.11" y2="-5081.18" gradientTransform="translate(3533.16 4092.22) rotate(-26.18)" xlink:href="#linear-gradient-9"/><linearGradient id="linear-gradient-15" x1="21062.31" y1="107.17" x2="21111.31" y2="76.49" xlink:href="#linear-gradient-13"/><linearGradient id="linear-gradient-16" x1="-897.62" y1="-7422.04" x2="-898.72" y2="-7405.18" gradientTransform="matrix(0.79, -0.61, 0.61, 0.79, 5337.6, 5426.2)" xlink:href="#linear-gradient-9"/><linearGradient id="linear-gradient-17" x1="13254.71" y1="38.86" x2="13248.21" y2="48.5" gradientTransform="matrix(-1, 0, 0, 1, 13301.64, 0)" xlink:href="#linear-gradient-9"/><linearGradient id="linear-gradient-18" x1="107.28" y1="72.27" x2="93.83" y2="93.79" xlink:href="#linear-gradient-5"/><linearGradient id="linear-gradient-19" x1="-798.64" y1="92.46" x2="-799.61" y2="86.21" gradientTransform="translate(888.87)" xlink:href="#linear-gradient-13"/><linearGradient id="linear-gradient-20" x1="-750.48" y1="-8652.21" x2="-744.19" y2="-8647.93" gradientTransform="matrix(0.72, -0.69, 0.69, 0.72, 6605.55, 5822.78)" xlink:href="#linear-gradient-13"/><linearGradient id="linear-gradient-21" x1="13225.31" y1="70.91" x2="13193.28" y2="106.42" gradientTransform="matrix(-1, 0, 0, 1, 13301.64, 0)" xlink:href="#linear-gradient-3"/><linearGradient id="linear-gradient-22" x1="-750.1" y1="-8652.76" x2="-743.81" y2="-8648.49" gradientTransform="matrix(0.72, -0.69, 0.69, 0.72, 6605.55, 5822.78)" xlink:href="#linear-gradient-13"/><linearGradient id="linear-gradient-23" x1="-794.15" y1="100.42" x2="-779.88" y2="100.42" gradientTransform="translate(888.87)" xlink:href="#linear-gradient-13"/><linearGradient id="linear-gradient-24" x1="-1081.36" y1="-183.02" x2="-1088.82" y2="-180.97" gradientTransform="translate(1183.17 229.63) rotate(-2.83)" xlink:href="#linear-gradient-3"/><linearGradient id="linear-gradient-25" x1="-804.9" y1="95.43" x2="-810.2" y2="101.03" gradientTransform="translate(888.87)" xlink:href="#linear-gradient-3"/><linearGradient id="linear-gradient-26" x1="88.22" y1="86.61" x2="104.46" y2="86.61" xlink:href="#linear-gradient"/><linearGradient id="linear-gradient-27" x1="103.51" y1="100.99" x2="106.58" y2="100.99" xlink:href="#linear-gradient"/></defs><title>Artboard 111</title><path class="cls-1" d="M109.58,104.76a44.55,44.55,0,0,1-6.85,5.63c-22.33,15.67-48.75,11.1-54.37,10-8.29-1.64-24.33-4.82-35.92-18.15-17.53-20.15-14.8-51.91-1.2-72.87C13.73,25.51,26.87,4.23,53.58.82c16.17-2.07,35,2.1,48.65,13.27C130.88,37.55,128.84,84.94,109.58,104.76Z"/><path class="cls-2" d="M67.77,60.9c-2.16-9.48-7.25-17.32-13.65-22.21A27.47,27.47,0,0,1,43.54,20.84q-.15-1.11-.42-2.25c-2.6-11.4-11.75-19-20.45-17s-13.62,12.83-11,24.24A27.63,27.63,0,0,0,14,32.25,27.54,27.54,0,0,1,16.16,52.6a40.53,40.53,0,0,0-.4,20.18c2.42,10.6,8.49,19.14,16,23.81A27.12,27.12,0,0,1,39,103.28c3.32,4.41,8.33,6.77,13.21,5.65,5.26-1.2,8.9-6.11,9.65-12.12A28.88,28.88,0,0,1,65,87.07C68.73,79.86,70,70.49,67.77,60.9Z"/><path class="cls-3" d="M28.49,13c2.85,7.28,5.47,14.65,8,22,.64,1.85,1.24,3.7,1.86,5.56l.91,2.78.9,2.79c.58,1.87,1.2,3.72,1.77,5.59l1.7,5.61c1.09,3.76,2.21,7.5,3.22,11.27.51,1.89,1.06,3.77,1.53,5.66L49.84,80c1.84,7.59,3.5,15.24,4.76,23l-.34,0L53.1,97.24l-.29-1.44-.32-1.42-.66-2.86-.65-2.85c-.21-1-.46-1.89-.69-2.84-.47-1.9-.93-3.79-1.42-5.68q-3-11.33-6.34-22.54c-1.15-3.73-2.27-7.46-3.45-11.19l-.88-2.79-.9-2.78c-.6-1.86-1.2-3.72-1.82-5.57Q33.86,29.72,32,24.17c-1.24-3.7-2.52-7.39-3.81-11.08Z"/><path class="cls-4" d="M35.66,70.51a9.55,9.55,0,0,1-4.83-8.25A27.7,27.7,0,0,0,28,50.7C23.14,40.48,13.54,34.88,6.57,38.21S-2.07,52.53,2.81,62.75a29.24,29.24,0,0,0,3.33,5.4,9.42,9.42,0,0,1,1.59,8.58A12.06,12.06,0,0,0,17.91,92.28a9.48,9.48,0,0,1,6.1,3.2c4.42,5.11,10.65,7.28,15.6,4.92,6.34-3,8.2-12.38,4.14-20.88A20.53,20.53,0,0,0,35.66,70.51Z"/><path class="cls-5" d="M49.87,110.08a.48.48,0,0,1-.5-.07c-7-6.11-15-18.28-20.54-27.42-5.95-9.88-10.31-18.44-10.35-18.53a.45.45,0,0,1,.2-.62.47.47,0,0,1,.63.2C19.48,64,36.73,97.75,50,109.3A.46.46,0,0,1,50,110,.61.61,0,0,1,49.87,110.08Z"/><path class="cls-6" d="M108.59,41.1a20.58,20.58,0,0,1-19.4,20.28,19.1,19.1,0,0,1-20.44-19c0-11.08,9.36-20.17,20.44-20.31A19,19,0,0,1,108.59,41.1Z"/><path class="cls-7" d="M110.18,41a20.58,20.58,0,0,1-19.4,20.28,19,19,0,0,1-20.27-19A20.55,20.55,0,0,1,90.78,22,19,19,0,0,1,110.18,41Z"/><path class="cls-8" d="M88.88,8.88c-18.63,0-34.26,15.2-34.26,33.94S70.25,75.7,88.88,74.45c18-1.21,32-16.35,32-33.86A31.71,31.71,0,0,0,88.88,8.88Zm0,4a9.76,9.76,0,0,1,9.88,9.73,10.11,10.11,0,0,1-9.88,10,9.76,9.76,0,0,1-10.07-9.73A10.09,10.09,0,0,1,88.88,12.9Zm2.36,28.69A2.45,2.45,0,0,1,88.88,44a2.25,2.25,0,0,1-2.36-2.26,2.44,2.44,0,0,1,2.36-2.41A2.26,2.26,0,0,1,91.24,41.59ZM69.42,52.39a9.82,9.82,0,0,1-10.48-9.72A10.64,10.64,0,0,1,69.42,32.25,9.82,9.82,0,0,1,79.69,42,10.66,10.66,0,0,1,69.42,52.39Zm19.46,18a9.32,9.32,0,0,1-10.07-9.34A10.59,10.59,0,0,1,88.88,50.68,9.33,9.33,0,0,1,98.76,60,10.6,10.6,0,0,1,88.88,70.43ZM107.6,50.72a9.25,9.25,0,0,1-9.69-9.36,10,10,0,0,1,9.69-10,9.27,9.27,0,0,1,9.5,9.37A10.05,10.05,0,0,1,107.6,50.72Z"/><path class="cls-9" d="M90.45,8.88c-18.63,0-34.27,15.2-34.27,33.94S71.82,75.7,90.45,74.45c18-1.21,32-16.35,32-33.86A31.7,31.7,0,0,0,90.45,8.88Zm0,4a9.75,9.75,0,0,1,9.87,9.73,10.11,10.11,0,0,1-9.87,10,9.76,9.76,0,0,1-10.08-9.73A10.1,10.1,0,0,1,90.45,12.9ZM92.8,41.59A2.45,2.45,0,0,1,90.45,44a2.25,2.25,0,0,1-2.36-2.26,2.44,2.44,0,0,1,2.36-2.41A2.25,2.25,0,0,1,92.8,41.59ZM71,52.39a9.82,9.82,0,0,1-10.48-9.72A10.64,10.64,0,0,1,71,32.25,9.82,9.82,0,0,1,81.26,42,10.66,10.66,0,0,1,71,52.39Zm19.46,18a9.32,9.32,0,0,1-10.08-9.34A10.59,10.59,0,0,1,90.45,50.68,9.32,9.32,0,0,1,100.32,60,10.59,10.59,0,0,1,90.45,70.43Zm18.71-19.71a9.26,9.26,0,0,1-9.69-9.36,10,10,0,0,1,9.69-10,9.27,9.27,0,0,1,9.5,9.37A10.05,10.05,0,0,1,109.16,50.72Z"/><path class="cls-10" d="M115.83,107.09A1.87,1.87,0,0,1,114,109H13.36a1.86,1.86,0,0,1-1.86-1.86l-.84-57.81a3.23,3.23,0,0,1,3.41-2.87l98.33-2.55a4.7,4.7,0,0,1,4.81,4.8Z"/><path class="cls-11" d="M114,105.31a1.76,1.76,0,0,1-1.76,1.76H15.78A1.77,1.77,0,0,1,14,105.31l-.79-52.49a4.33,4.33,0,0,1,4.55-4.22L112,46.07a3.28,3.28,0,0,1,3.38,3.37Z"/><path class="cls-2" d="M17.07,103.74c.1-4.58.06-45.14-.19-48.65s5-4.16,13-4.55,75.83-2,77.57-2.1c3.93-.33,4.74,5.78,4.35,19-.3,10-.79,26.4-1,34a4.09,4.09,0,0,1-4,4c-16.32,0-78.84.23-83,.36C19,106,17,105.56,17.07,103.74Z"/><path class="cls-12" d="M121.45,113.75H7.92a2.54,2.54,0,0,1-2.54-2.54h0a2.54,2.54,0,0,1,2.54-2.54H121.45a2.54,2.54,0,0,1,2.54,2.54h0A2.54,2.54,0,0,1,121.45,113.75Z"/><path class="cls-13" d="M75.6,85.57H21.13a1.69,1.69,0,0,1-1.73-1.64V55.84a3,3,0,0,1,3-3L75.6,51.75a1.69,1.69,0,0,1,1.73,1.64V83.93A1.69,1.69,0,0,1,75.6,85.57Z"/><path class="cls-4" d="M45.84,64.12v10a.29.29,0,0,0,.46.24l7.46-5.21a.3.3,0,0,0,0-.49l-7.47-4.82A.3.3,0,0,0,45.84,64.12Z"/><path class="cls-4" d="M107.76,68.63H80.57a.83.83,0,0,1-.86-.82v-14a1.52,1.52,0,0,1,1.51-1.48l26.54-.56a.83.83,0,0,1,.86.82V67.81A.83.83,0,0,1,107.76,68.63Z"/><path class="cls-14" d="M92.91,57.92v5a.14.14,0,0,0,.23.12l3.72-2.6a.14.14,0,0,0,0-.24L93.13,57.8A.14.14,0,0,0,92.91,57.92Z"/><path class="cls-15" d="M25.84,102.31a2.89,2.89,0,0,1-2.89,2.9,3.08,3.08,0,0,1-3.18-2.81,3.22,3.22,0,0,1,3.18-3A2.89,2.89,0,0,1,25.84,102.31Z"/><path class="cls-14" d="M22.06,100.52v3.65a.1.1,0,0,0,.16.09l2.72-1.9a.11.11,0,0,0,0-.18l-2.72-1.75A.1.1,0,0,0,22.06,100.52Z"/><rect class="cls-14" x="27.93" y="101.26" width="73.99" height="2.72" rx="1.36"/><path class="cls-16" d="M55.82,101.26H28.55a.53.53,0,0,0-.56.49v1.74a.53.53,0,0,0,.56.49H55.81C55.8,103.07,55.8,102.17,55.82,101.26Z"/><rect class="cls-14" x="16.87" y="86.75" width="91" height="11.19" rx="5.6"/><path class="cls-11" d="M33.33,97.1H18.67a.45.45,0,0,1-.46-.44V89.1a.81.81,0,0,1,.81-.79L33.33,88a.45.45,0,0,1,.46.44v8.22A.45.45,0,0,1,33.33,97.1Z"/><path class="cls-11" d="M50.37,97.1H35.71a.45.45,0,0,1-.46-.44V89.1a.81.81,0,0,1,.81-.79L50.37,88a.45.45,0,0,1,.46.44v8.22A.45.45,0,0,1,50.37,97.1Z"/><path class="cls-11" d="M67.55,97.1H52.9a.46.46,0,0,1-.47-.44V89.1a.82.82,0,0,1,.82-.79L67.55,88a.46.46,0,0,1,.47.44v8.22A.46.46,0,0,1,67.55,97.1Z"/><path class="cls-11" d="M84.59,97.1H69.94a.46.46,0,0,1-.47-.44V89.1a.81.81,0,0,1,.82-.79L84.59,88a.46.46,0,0,1,.47.44v8.22A.46.46,0,0,1,84.59,97.1Z"/><path class="cls-11" d="M101.49,97.1H86.84a.46.46,0,0,1-.47-.44V89.1a.81.81,0,0,1,.82-.79l14.3-.31a.46.46,0,0,1,.47.44v8.22A.46.46,0,0,1,101.49,97.1Z"/><path class="cls-17" d="M84.26,83.76c.52,3.13,4.54,7.62,5.39,9.24,1.14,2.21.82,8.83,3.72,12A5.75,5.75,0,0,0,98,106.7a13.86,13.86,0,0,0,3.54-1c2.18-.76,4.62-1.62,5.69-3.85a8.85,8.85,0,0,0,0-7.08,9.69,9.69,0,0,0-3.83-4.35c-2.56-1.61-5.58-2.39-8-4.23-1.75-1.33-2.62-3.51-4.39-4.8a5,5,0,0,0-4.36-.79,6.8,6.8,0,0,0-1.29.49h0a2.85,2.85,0,0,0-.26.17,2.34,2.34,0,0,0-.59.63l-.09.17A2.82,2.82,0,0,0,84.26,83.76Z"/><path class="cls-18" d="M71.82,118.46s9.1-15.92,10.33-17.42a.94.94,0,0,1,.85-.34l2.53.3,3,6.45-5-2.89C84,108,77.66,113,75.48,114.84a.5.5,0,0,0,0,.73l.87.92a10,10,0,0,1-5,2.81Z"/><path class="cls-19" d="M75.81,116a1.28,1.28,0,0,1,.74.68.55.55,0,0,1-.21.65,28.59,28.59,0,0,1-5.34,3.2.17.17,0,0,1-.2-.19,5.15,5.15,0,0,1,1-1.92l-.06.14a.19.19,0,0,0,.26.25A14.72,14.72,0,0,0,75.81,116Z"/><path class="cls-20" d="M75.36,122.36s1.38-3.29,1.39-3.3A57.71,57.71,0,0,1,82,103.22a1,1,0,0,1,.76-.51l2.55-.22,4.22,5.71L84,106.38c1.17,3.22-4,9.46-5.82,11.7a.51.51,0,0,0,.11.73l1,.71a10,10,0,0,1-4.28,3.76Z"/><path class="cls-21" d="M78.76,119.14a1.31,1.31,0,0,1,.87.51.56.56,0,0,1-.08.69A28,28,0,0,1,75,124.55a.16.16,0,0,1-.23-.15,5.11,5.11,0,0,1,.64-2.09l0,.15a.19.19,0,0,0,.32.19A14.8,14.8,0,0,0,78.76,119.14Z"/><path class="cls-22" d="M97.16,101.29s2.31,3.43,2.49,5-.63,2.1-3,2.3c-7.17.59-10.7-1.56-10.7-1.56-.49-3.12-.84-3.92-4.94-5.62,0,0,5.18.41,6.22,0S97.16,101.29,97.16,101.29Z"/><path class="cls-23" d="M90.94,100.84a52.52,52.52,0,0,1-4-4.24,3.61,3.61,0,0,1-.61-3.23c.61-2,1.68-4.13,1.77-4.46.15-.5,3.16-.48,3.16-.48s5.91,3.84,8.24,10.34l-2.61.81a31.19,31.19,0,0,0-3.07-4.24s2.64,3.49,2.73,4.92Z"/><path class="cls-24" d="M87.74,86.11c0,.1.82,2.7.88,2.76a4.45,4.45,0,0,0,2.5-.39L89.52,85Z"/><path class="cls-25" d="M85.58,83.19a4.82,4.82,0,0,0,.1,3.25c.66,2,1.73,2.13,2.41,1.65A3.89,3.89,0,0,0,89.76,85C89.87,83.18,86.35,81.56,85.58,83.19Z"/><path class="cls-26" d="M84.29,83.76a2.31,2.31,0,0,0,1,.85h0c0-.5.59-1,1.07-1.12a1.37,1.37,0,0,1,1.38.31,3.67,3.67,0,0,1,.74,1.07l.16-.05s0-.78.48-.6.69,1.21.69,1.21,1,.48,1.14-.91S90.4,82,88.58,81a3,3,0,0,0-1.92-.36,3.07,3.07,0,0,0-1.29.49,3,3,0,0,0-.93,1A2.9,2.9,0,0,0,84.29,83.76Z"/><path class="cls-27" d="M88.84,84.87s-.62-1.36.25-1.41.51,1.32.34,1.81Z"/><path class="cls-28" d="M85.83,101.85l2-2.19,2.32.62a13.48,13.48,0,0,0,4.27,0L96,99.86l3.51-1.09.55,1.56a.92.92,0,0,1-.35,1.07,5.25,5.25,0,0,1-.88.55c-.46.21-10.64.07-10.64.07Z"/><path class="cls-29" d="M92.5,102.71H83.22a.41.41,0,0,1-.42-.41.42.42,0,0,1,.42-.42h9.26a.42.42,0,0,1,.41.42A.41.41,0,0,1,92.5,102.71Z"/><path class="cls-30" d="M74.89,94.3H82.6a1.46,1.46,0,0,1,1.33.85l3.57,7.56H77.91a.9.9,0,0,1-.83-.57l-2.76-7A.62.62,0,0,1,74.89,94.3Z"/><g class="cls-31"><path class="cls-32" d="M104.4,92.48a.05.05,0,0,1,0,0c-1.13-1.65-3.09-2.3-5.18-3-2.35-.77-4.79-1.56-5.92-3.94a9.19,9.19,0,0,0-3.27-4,4.85,4.85,0,0,0-1.72-.7.06.06,0,0,1,0-.06.06.06,0,0,1,.06,0,4.29,4.29,0,0,1,1.76.71,9.24,9.24,0,0,1,3.33,4c1.1,2.34,3.51,3.12,5.85,3.88,2,.65,4.09,1.33,5.23,3a.06.06,0,0,1,0,.08Z"/><path class="cls-33" d="M103.56,103.86a.07.07,0,0,1,0,0,.05.05,0,0,1,0-.07c3.49-1.24,2.89-5.52,2.88-5.56a.06.06,0,0,1,0-.06.06.06,0,0,1,.07,0s.61,4.42-3,5.68Z"/></g></svg>