<svg id="Layer_1" data-name="Layer 1" xmlns="http://www.w3.org/2000/svg" viewBox="0 0 338.93 81.2"><defs><style>.cls-1{fill:#fff;}</style></defs><title>Artboard 27</title><path class="cls-1" d="M104.24,41.93H82.54A10.55,10.55,0,0,0,84,47a8.4,8.4,0,0,0,3.4,3.19A9.93,9.93,0,0,0,92,51.27a9.24,9.24,0,0,0,5.48-1.58,7.44,7.44,0,0,0,3-4.27H104a11.05,11.05,0,0,1-4.09,6.25A12.48,12.48,0,0,1,92,54.09a13.18,13.18,0,0,1-6.61-1.65,11.69,11.69,0,0,1-4.58-4.69,14.71,14.71,0,0,1-1.65-7.12,15,15,0,0,1,1.63-7.14,11.31,11.31,0,0,1,4.55-4.69A13.41,13.41,0,0,1,92,27.17a12.75,12.75,0,0,1,6.54,1.63,11.33,11.33,0,0,1,4.31,4.38,12.6,12.6,0,0,1,1.51,6.11C104.34,40.44,104.3,41.32,104.24,41.93Zm-4.48-7.72a7.86,7.86,0,0,0-3.33-3.11,10.16,10.16,0,0,0-4.6-1.05,9.12,9.12,0,0,0-6.37,2.39,9.6,9.6,0,0,0-2.92,6.76h18.4A9.3,9.3,0,0,0,99.76,34.21Z"/><path class="cls-1" d="M119.76,50.45l8.82-22.9h3.54L121.63,53.71h-3.78l-10.5-26.16H111Z"/><path class="cls-1" d="M160.24,41.93h-21.7A10.44,10.44,0,0,0,140,47a8.4,8.4,0,0,0,3.4,3.19,9.93,9.93,0,0,0,4.6,1.08,9.24,9.24,0,0,0,5.48-1.58,7.44,7.44,0,0,0,2.95-4.27H160a11.05,11.05,0,0,1-4.09,6.25A12.5,12.5,0,0,1,148,54.09a13.18,13.18,0,0,1-6.61-1.65,11.69,11.69,0,0,1-4.58-4.69,14.71,14.71,0,0,1-1.65-7.12,15,15,0,0,1,1.63-7.14,11.31,11.31,0,0,1,4.55-4.69A13.41,13.41,0,0,1,148,27.17a12.75,12.75,0,0,1,6.54,1.63,11.4,11.4,0,0,1,4.31,4.38,12.6,12.6,0,0,1,1.51,6.11C160.34,40.44,160.3,41.32,160.24,41.93Zm-4.48-7.72a7.86,7.86,0,0,0-3.33-3.11,10.16,10.16,0,0,0-4.6-1.05,9.12,9.12,0,0,0-6.37,2.39,9.56,9.56,0,0,0-2.92,6.76h18.39A9.21,9.21,0,0,0,155.76,34.21Z"/><path class="cls-1" d="M186.4,30q3,2.91,3,8.41V53.71h-3.31v-15q0-4.26-2.13-6.51A7.63,7.63,0,0,0,178.11,30a7.91,7.91,0,0,0-6,2.39q-2.25,2.4-2.25,7V53.71h-3.35V27.55h3.35V32a8.59,8.59,0,0,1,3.59-3.67,11.09,11.09,0,0,1,5.32-1.26A10.54,10.54,0,0,1,186.4,30Z"/><path class="cls-1" d="M201.15,30.38V46.62a4.65,4.65,0,0,0,.91,3.31,4.53,4.53,0,0,0,3.21.91h3.06v2.87h-3.59q-3.54,0-5.27-1.65t-1.72-5.44V30.38h-3.64V27.55h3.64V21h3.4v6.56h7.18v2.83Z"/><path class="cls-1" d="M254.14,30.09c1.86,1.89,2.78,4.73,2.78,8.53V53.71H256V38.52q0-5.07-2.39-7.73a8.41,8.41,0,0,0-6.57-2.66,8.88,8.88,0,0,0-7,3.09q-2.69,3.09-2.68,9V53.71h-.91V38.52q0-5.07-2.39-7.73a8.41,8.41,0,0,0-6.57-2.66,8.84,8.84,0,0,0-7.06,3.09c-1.78,2.06-2.66,5.05-2.66,9V53.71h-1V27.84h1v6.85a9.39,9.39,0,0,1,3.57-5.58,10.38,10.38,0,0,1,6.15-1.84,9.89,9.89,0,0,1,6.25,2A9.53,9.53,0,0,1,237,35.46a9.94,9.94,0,0,1,3.57-6.16,10.46,10.46,0,0,1,6.44-2A9.51,9.51,0,0,1,254.14,30.09Z"/><path class="cls-1" d="M264.18,20.87a1.39,1.39,0,0,1,0-1.87A1.27,1.27,0,0,1,266,19a1.39,1.39,0,0,1,0,1.87,1.27,1.27,0,0,1-1.77,0Zm1.36,7V53.71h-1V27.84Z"/><path class="cls-1" d="M290.07,53.71l-7.9-12.31-7.86,12.31h-1.05l8.33-13.17-8.19-12.7h1.1l7.76,12,7.72-12h1l-8.19,12.89,8.38,13Z"/><path class="cls-1" d="M315.56,51a9.06,9.06,0,0,0,3.59-6h1a10.32,10.32,0,0,1-3.81,6.59A12.49,12.49,0,0,1,308.23,54a12.84,12.84,0,0,1-6.42-1.58,11,11,0,0,1-4.43-4.59,14.93,14.93,0,0,1-1.61-7.09,14.87,14.87,0,0,1,1.61-7.09,11,11,0,0,1,4.43-4.6,12.84,12.84,0,0,1,6.42-1.58,12.36,12.36,0,0,1,6.46,1.6,10.72,10.72,0,0,1,4.05,4.14,11.23,11.23,0,0,1,1.37,5.37c0,1.15,0,2-.05,2.59H296.73a13.08,13.08,0,0,0,1.65,6.66,10.37,10.37,0,0,0,4.19,4,12.4,12.4,0,0,0,5.66,1.31A12,12,0,0,0,315.56,51Zm-13-21.29a10.24,10.24,0,0,0-4.19,4,13,13,0,0,0-1.65,6.65h22.51A11.83,11.83,0,0,0,318,33.69a9.57,9.57,0,0,0-4.12-4,12.71,12.71,0,0,0-11.28,0Z"/><path class="cls-1" d="M338.93,27.27v1.05h-.43a10.47,10.47,0,0,0-6.92,2.37q-2.85,2.37-2.85,7.64V53.71h-1V27.84h1v6.28Q330.26,27.27,338.93,27.27Z"/><rect class="cls-1" x="25.46" y="11.9" width="14.14" height="35.74" rx="6.49"/><rect class="cls-1" x="25.46" y="52.41" width="14.14" height="16.68" rx="6.63"/><rect class="cls-1" y="23.58" width="14.14" height="57.62" rx="6.92"/><rect class="cls-1" width="14.14" height="16.9" rx="6.43"/><rect class="cls-1" x="50.92" y="23.65" width="14.14" height="33.77" rx="6.77"/></svg>