<?xml version="1.0" encoding="utf-8"?>
<!-- Generator: Adobe Illustrator 22.0.0, SVG Export Plug-In . SVG Version: 6.00 Build 0)  -->
<svg version="1.1" id="Camada_1" xmlns="http://www.w3.org/2000/svg" xmlns:xlink="http://www.w3.org/1999/xlink" x="0px" y="0px"
	 viewBox="0 0 260 140" style="enable-background:new 0 0 260 140;" xml:space="preserve">
<style type="text/css">
	.st0{fill:#212D4B;}
	.st1{enable-background:new    ;}
</style>
<g>
	<circle class="st0" cx="41.8" cy="74.4" r="10.1"/>
	<polygon class="st0" points="106.9,19.3 106.9,102.3 24.5,102.3 24.5,120.8 106.9,120.8 125.4,120.8 125.4,102.3 125.4,19.3 	"/>
	<polygon class="st0" points="72.3,19.3 24.5,19.3 24.5,37.8 72.3,37.8 72.3,84.4 90.8,84.4 90.8,37.8 90.8,19.3 	"/>
	<g class="st1">
		<path class="st0" d="M146.5,19.2h6.7l7.6,21.4h0.1l7.3-21.4h6.6v27.3h-4.6v-21h-0.1l-7.6,21.1h-3.9l-7.6-21.1h-0.1v21.1h-4.6
			L146.5,19.2L146.5,19.2z"/>
		<path class="st0" d="M180.6,19.2h4.8v27.3h-4.8V19.2z"/>
		<path class="st0" d="M188.8,19.2h5.7l6.2,9.6l6.4-9.6h5.3l-9,13.2l9.7,14.1h-5.8l-6.8-10.4l-6.9,10.5h-5.4l9.7-14.1L188.8,19.2z"
			/>
	</g>
	<g class="st1">
		<path class="st0" d="M146.5,56.1h6.7l7.6,21.4h0.1l7.3-21.4h6.6v27.3h-4.6V62.3h-0.1l-7.6,21.1h-3.9l-7.6-21.1h-0.1v21.1h-4.6
			L146.5,56.1L146.5,56.1z"/>
		<path class="st0" d="M187.7,72.6l-10.3-16.6h5.5l7.2,12.2l7.1-12.2h5.3l-10.2,16.6v10.7h-4.8L187.7,72.6L187.7,72.6z"/>
	</g>
	<g class="st1">
		<path class="st0" d="M143.5,92.9h4.9l6.8,21.6h0.1l7-21.6h4.8l-9.4,27.3h-5.3L143.5,92.9z"/>
		<path class="st0" d="M169.9,92.9h4.8v27.3h-4.8V92.9z"/>
		<path class="st0" d="M183.7,111.1c0,4.2,3.1,5.9,6.9,5.9c4.2,0,5.8-2.1,5.8-4.1c0-2.1-1.1-2.9-2.3-3.4c-1.9-0.7-4.4-1.3-8.2-2.3
			c-4.7-1.3-6-4.1-6-6.9c0-5.5,5.1-8,10-8c5.7,0,10.5,3,10.5,8.7h-4.8c-0.2-3.5-2.6-4.8-5.9-4.8c-2.2,0-5,0.8-5,3.5
			c0,1.9,1.3,3,3.3,3.5c0.4,0.1,6.5,1.7,7.9,2.1c3.6,1.1,5.3,4.1,5.3,7c0,6.1-5.4,8.6-10.9,8.6c-6.3,0-11.3-3-11.4-9.7L183.7,111.1
			L183.7,111.1z"/>
		<path class="st0" d="M205.3,92.9h4.8v27.3h-4.8V92.9z"/>
		<path class="st0" d="M213.3,92.9h22.1V97h-8.7v23.2H222V97h-8.6L213.3,92.9L213.3,92.9z"/>
	</g>
</g>
</svg>
