<?xml version="1.0" encoding="utf-8"?>
<!-- Generator: Adobe Illustrator 22.0.0, SVG Export Plug-In . SVG Version: 6.00 Build 0)  -->
<svg version="1.1" id="Camada_1" xmlns="http://www.w3.org/2000/svg" xmlns:xlink="http://www.w3.org/1999/xlink" x="0px" y="0px"
	 viewBox="0 0 450 285" style="enable-background:new 0 0 450 285;" xml:space="preserve">
<style type="text/css">
	.st0{fill:#F6F6F6;}
	.st1{enable-background:new    ;}
</style>
<g>
	<circle class="st0" cx="62.8" cy="150.6" r="18.5"/>
	<polygon class="st0" points="182.5,49.2 182.5,201.9 31,201.9 31,235.9 182.5,235.9 216.5,235.9 216.5,201.9 216.5,49.2 	"/>
	<polygon class="st0" points="118.9,49.2 31,49.2 31,83.2 118.9,83.2 118.9,169 152.9,169 152.9,83.2 152.9,49.2 	"/>
	<g class="st1">
		<path class="st0" d="M255.3,49h12.4l13.9,39.3h0.1L295.2,49h12.2v50.2H299V60.5h-0.1L285,99.3h-7.2l-13.9-38.8h-0.1v38.8h-8.4
			L255.3,49L255.3,49z"/>
		<path class="st0" d="M318,49h8.8v50.2H318V49z"/>
		<path class="st0" d="M333.2,49h10.5l11.4,17.7L366.9,49h9.8l-16.6,24.2l17.8,26h-10.7L354.7,80L342,99.3h-10l17.8-26L333.2,49z"/>
	</g>
	<g class="st1">
		<path class="st0" d="M255.3,116.8h12.4l13.9,39.3h0.1l13.5-39.3h12.2V167H299v-38.8h-0.1L285,167h-7.2l-13.9-38.8h-0.1V167h-8.4
			L255.3,116.8L255.3,116.8z"/>
		<path class="st0" d="M331.1,147.3l-18.9-30.5h10.2l13.3,22.5l13.1-22.5h9.8l-18.8,30.5V167H331L331.1,147.3L331.1,147.3z"/>
	</g>
	<g class="st1">
		<path class="st0" d="M249.8,184.5h9.1l12.6,39.7h0.1l12.9-39.7h8.9l-17.2,50.2h-9.8L249.8,184.5z"/>
		<path class="st0" d="M298.4,184.5h8.8v50.2h-8.8V184.5z"/>
		<path class="st0" d="M323.8,218c0,7.7,5.7,10.8,12.7,10.8c7.7,0,10.6-3.8,10.6-7.6c0-3.9-2.1-5.4-4.2-6.2c-3.5-1.3-8.1-2.3-15-4.2
			c-8.6-2.3-11.1-7.5-11.1-12.7c0-10.1,9.3-14.8,18.4-14.8c10.5,0,19.3,5.6,19.3,16h-8.8c-0.4-6.5-4.8-8.9-10.8-8.9
			c-4.1,0-9.2,1.5-9.2,6.5c0,3.5,2.4,5.5,6,6.5c0.8,0.2,11.9,3.1,14.5,3.9c6.6,2,9.8,7.6,9.8,12.8c0,11.3-10,15.8-20,15.8
			c-11.5,0-20.8-5.5-21-17.9L323.8,218L323.8,218z"/>
		<path class="st0" d="M363.6,184.5h8.8v50.2h-8.8V184.5z"/>
		<path class="st0" d="M378.3,184.5H419v7.6h-16v42.6h-8.8v-42.6h-15.9L378.3,184.5L378.3,184.5z"/>
	</g>
</g>
</svg>
